<svg xmlns="http://www.w3.org/2000/svg" width="140.831" height="32.537" viewBox="0 0 140.831 32.537">
    <defs>
        <style>
            .cls-1{fill:#09c0c0}.cls-2{fill:#7e7675}
        </style>
    </defs>
    <g id="logo" transform="translate(1322.512 1090.489)">
        <path id="패스_329" d="M-1014.167-965.332l.178.2c-.032.038-.064.094-.08.09-.246-.063-.327.159-.475.264-.049.034-.129.025-.179.059-.1.068-.248.139-.269.233a2.938 2.938 0 0 1-.475.825c-.027.045-.078.085-.084.131a1.69 1.69 0 0 1-.368.9.251.251 0 0 0-.024.178c.022.135.013.244-.133.308a.141.141 0 0 0-.073.111c.055.252-.121.442-.172.665a1.457 1.457 0 0 1-.268.706c-.181.174-.134.289-.087.466.145-.017.35-.107.332.134a2.648 2.648 0 0 1-.181.628.13.13 0 0 1-.116.048.143.143 0 0 1-.076-.1c-.027-.131.007-.331-.179-.324-.207.009-.152.231-.2.37-.029.088-.094.164-.132.25a.566.566 0 0 0-.053.205c0 .027.072.085.094.078a.343.343 0 0 0 .159-.108 1.344 1.344 0 0 0 .076-.191c.036-.07.085-.133.145-.226.168.356.138.506-.044.732a.564.564 0 0 0-.076.323c0 .177.038.356.026.532a1.312 1.312 0 0 1-.121.34c-.3-.127-.54-.215-.766-.333a.339.339 0 0 1-.129-.235 4.107 4.107 0 0 1-.006-.5l-.074-.024c-.054.054-.1.131-.165.157a.442.442 0 0 1-.3.046.851.851 0 0 1-.324-.284 1.84 1.84 0 0 1-.484-1.508 2.337 2.337 0 0 0-.013-.556c0-.182-.031-.371.139-.513a.255.255 0 0 0 .054-.171c.006-.2-.042-.409.176-.537a.083.083 0 0 0 .026-.063 1.264 1.264 0 0 1 .166-.666c.083-.149.065-.347.212-.505a1.529 1.529 0 0 0 .2-.5c.051-.133.1-.265.155-.4.08-.209.147-.425.242-.627s.209-.363.312-.546c.085-.151.16-.308.247-.458.187-.32.385-.634.566-.957.148-.265.265-.547.42-.807.233-.388.495-.76.732-1.146.139-.226.249-.469.383-.7.208-.352.429-.7.641-1.047a10.32 10.32 0 0 1 .565-.928c.168-.221.247-.559.6-.594a3.083 3.083 0 0 1 .615 0 .221.221 0 0 1 .21.277c-.022.155.051.234.2.314s.25.262.382.387c.323.307.16.686.168 1.042.008.332.006.667.045 1 .03.253-.137.387-.251.562-.182.28-.356.565-.524.853-.184.314-.358.633-.536.95-.125.222-.247.446-.372.668-.07.123-.117.245-.307.264-.119.017-.222.16-.35.258z" class="cls-1" transform="translate(-260.426 -100.997)"/>
        <path id="패스_330" d="M-1262.3-1081.3a.572.572 0 0 0-.054-.159 1.255 1.255 0 0 1-.108-.353c0-.131.045-.255-.1-.34a.143.143 0 0 1-.034-.124c.062-.276-.215-.448-.211-.708a.638.638 0 0 0-.083-.233 1.078 1.078 0 0 0-.081-.147.7.7 0 0 1-.078-.111l-.3-.844c-.012-.034-.058-.056-.084-.086a.322.322 0 0 1-.069-.1 2.185 2.185 0 0 0-.173-.5c-.17-.254-.165-.593-.411-.806-.018-.016-.006-.062-.022-.083a2.036 2.036 0 0 0-.243-.3 2.653 2.653 0 0 0-.34-.233c-.106-.068-.217-.129-.32-.2-.182-.13-.386-.239-.556-.37a3.618 3.618 0 0 0-.831-.454c-.117-.05-.281-.033-.365-.111a.527.527 0 0 0-.41-.108 4.364 4.364 0 0 0-.6.005 6.184 6.184 0 0 0-.692.163c-.024.006-.039.043-.063.059a.61.61 0 0 1-.118.063c-.319.118-.644.224-.958.355-.276.115-.541.256-.81.387-.183.089-.365.184-.548.273-.128.063-.259.12-.388.18-.145.067-.294.127-.435.2-.2.1-.386.223-.582.33-.247.135-.5.26-.746.4-.227.127-.449.263-.672.4-.147.089-.291.185-.439.274-.1.06-.207.106-.3.173a1 1 0 0 0-.234.232c-.017.025.08.109.086.17a1.45 1.45 0 0 1-.014.356 1.619 1.619 0 0 1-.086.259c-.015.044-.014.1-.042.131-.147.152-.3.3-.468.46-.041-.055-.086-.106-.12-.163-.15-.245-.576-.484-.8-.4a3.794 3.794 0 0 0-.635.351c-.2.122-.385.258-.576.39-.269.184-.542.364-.806.557s-.522.415-.791.611c-.3.217-.608.416-.906.632-.1.075-.181.188-.286.263-.29.207-.589.4-.881.606-.177.124-.346.257-.523.381a.1.1 0 0 1-.1 0c-.113-.073-.228-.144-.191-.316a.209.209 0 0 0-.041-.175.3.3 0 0 1-.089-.32c.01-.08.033-.206-.007-.237-.211-.163-.149-.367-.132-.575a1.436 1.436 0 0 0-.036-.4c-.016-.076-.1-.144-.1-.217-.011-.432-.01-.864-.006-1.3 0-.086 0-.215.049-.251.164-.117.09-.273.1-.412a1.888 1.888 0 0 0 0-.284c0-.04-.009-.1-.033-.113-.125-.059-.1-.169-.119-.271a.5.5 0 0 0-.067-.137c-.038-.078-.079-.156-.113-.236-.018-.041-.015-.094-.039-.128-.107-.15-.062-.375-.245-.487-.011-.007 0-.046-.005-.069-.046-.17-.092-.341-.144-.509-.009-.029-.053-.045-.074-.073a.4.4 0 0 1-.069-.115c-.053-.168-.084-.344-.152-.5a6.4 6.4 0 0 0-.325-.649q-.339-.6-.7-1.193a6.142 6.142 0 0 0-.441-.668 5.345 5.345 0 0 0-1.094-.953c-.009-.007-.023-.007-.032-.014-.244-.176-.594-.078-.815-.314-.006-.006-.023 0-.035 0-.412.063-.824-.082-1.25.107a4.983 4.983 0 0 0-1.182.668c-.448.372-.84.812-1.25 1.228a7.776 7.776 0 0 0-.536.588c-.216.269-.414.552-.615.832-.123.171-.234.349-.355.521a7.082 7.082 0 0 1-.436.589 3.378 3.378 0 0 1-.374.294q-.289.245-.568.5c-.585.54-1.193 1.058-1.743 1.631-.517.538-.973 1.135-1.453 1.71-.211.253-.412.514-.619.769-.078.1-.169.182-.242.282-.224.306-.442.616-.663.923-.041.057-.087.11-.125.168-.165.247-.323.5-.494.741-.157.224-.328.438-.492.657a.3.3 0 0 0-.015.032c-.126.214-.247.431-.379.641s-.265.395-.4.593-.256.4-.388.6c-.151.227-.308.451-.463.677-.007.01-.01.021-.016.031l-.39.635-.363.6c-.121.2-.236.386-.359.576s-.262.385-.386.582-.223.393-.344.584-.27.392-.4.592c-.142.219-.278.442-.416.663-.105.168-.215.332-.314.5-.114.2-.208.4-.327.594-.19.306-.4.6-.588.906-.112.182-.2.38-.307.564-.195.323-.406.638-.6.963-.153.258-.284.53-.435.791-.228.4-.475.781-.7 1.181-.252.456-.486.923-.721 1.388a2.92 2.92 0 0 0-.177.438 1.567 1.567 0 0 0-.18.6c0 .026-.035.063-.062.082-.143.1-.088.248-.055.35a4.568 4.568 0 0 0 .279.574c.107.215.212.432.321.645a1.2 1.2 0 0 0 .1.123c.179.258.349.522.538.773.138.183.3.347.451.519a2.865 2.865 0 0 0 .2.224q.513.47 1.034.932a1.5 1.5 0 0 0 .182.118 2.508 2.508 0 0 1 .276.187 1.688 1.688 0 0 0 .78.44c.028.006.073 0 .082.02.092.157.234.088.365.1a.63.63 0 0 1 .285.094c.113.074.195.094.3-.015a.452.452 0 0 1 .213-.081c.066-.016.156.008.2-.028a.6.6 0 0 0 .209-.54c0-.043-.024-.112-.052-.121-.173-.053-.128-.189-.128-.308 0-.495 0-.989.009-1.483 0-.068.034-.186.071-.194.122-.027.1-.106.1-.184a.856.856 0 0 1 0-.293c.091-.224.214-.435.317-.655.08-.17.145-.347.224-.518a.389.389 0 0 1 .107-.129c.162-.133.326-.263.494-.389a.14.14 0 0 1 .123-.021c.044.027.106.1.1.126a3.346 3.346 0 0 1-.267.679 1.893 1.893 0 0 0-.162.719.269.269 0 0 0 .067.178c.023.03.11.053.125.038a1.323 1.323 0 0 0 .18-.237c.1-.16.188-.324.28-.488s.2-.349.29-.527c.081-.16.141-.33.228-.487s.184-.27.272-.408a2.562 2.562 0 0 0 .147-.268c.1-.218.2-.441.307-.658a.87.87 0 0 1 .174-.295c.286-.24.3-.626.51-.906a3.694 3.694 0 0 0 .225-.417c.17-.3.345-.6.518-.893.059-.1.12-.2.177-.308.076-.14.146-.283.223-.422.115-.208.233-.414.351-.62.094-.165.192-.328.286-.493s.194-.344.287-.519c.084-.16.153-.328.244-.484.076-.13.186-.24.257-.371.113-.205.194-.427.31-.63.1-.167.228-.313.329-.477.05-.082.048-.2.1-.277.1-.159.23-.3.342-.459a.935.935 0 0 0 .053-.128c.084-.164.164-.331.258-.49.068-.116.164-.215.234-.33a3.8 3.8 0 0 1 .23-.417 1.63 1.63 0 0 0 .348-.614.255.255 0 0 1 .041-.093l.5-.634a.083.083 0 0 0 .01-.049c0-.117.076-.173.147-.254a3.4 3.4 0 0 0 .43-.63c.054-.1.067-.2.181-.276.089-.057.131-.182.2-.274.081-.109.172-.212.251-.322.059-.082.106-.172.16-.257.029-.046.062-.09.095-.133l.307-.41a2.23 2.23 0 0 1 .142-.186 2.4 2.4 0 0 0 .349-.37 1.93 1.93 0 0 1 .469-.6 5.587 5.587 0 0 0 .71-.844 6.959 6.959 0 0 1 1.542-1.4c.09-.056.168-.049.213.065a4.009 4.009 0 0 0 .179.429c.063.118.164.217.229.334a.274.274 0 0 1-.008.185 1.95 1.95 0 0 1-.1.213c-.023.053-.036.111-.061.162-.075.153-.166.3-.228.458s-.108.351-.165.526c-.01.031-.044.054-.062.084a1.081 1.081 0 0 0-.08.15c-.069.17-.129.344-.2.513s-.169.323-.233.492-.106.364-.159.546a.478.478 0 0 1-.032.062c-.084.174-.177.345-.251.523s-.13.376-.2.559-.166.36-.246.542c-.013.03 0 .072-.007.105a1.615 1.615 0 0 1-.075.191 1.278 1.278 0 0 0-.07.137c-.055.187-.1.376-.157.564 0 .016-.019.03-.026.046-.04.092-.078.184-.119.275l-.08.172a.976.976 0 0 0-.064.14c-.062.215-.118.431-.177.646 0 .011-.012.021-.016.031-.036.1-.072.2-.105.3-.013.039-.008.1-.033.117a.413.413 0 0 0-.119.355c0 .034 0 .085-.026.1-.164.113-.1.289-.131.437-.081.337.208.6.18.923 0 .011.029.021.035.036.035.083.067.167.1.25s.058.156.087.234c.022.059.044.119.063.179a1.683 1.683 0 0 0 .051.184c.071.163.159.318.222.484a3.369 3.369 0 0 0 .742 1.29.267.267 0 0 1 .029.044.965.965 0 0 0 .659.508c.024 0 .041.039.065.054a.6.6 0 0 0 .193.1 3.209 3.209 0 0 0 .355.005.276.276 0 0 0 .287-.119c.024-.039.122-.055.181-.046.15.022.3.057.345-.119h.977a.292.292 0 0 0 .048.094c.146.144.3.284.445.426.077.073.127.04.191-.027.139-.147.265-.342.439-.412a1.65 1.65 0 0 0 .5-.4c.063-.058.106-.138.168-.2.27-.256.642-.378.878-.687a1.276 1.276 0 0 1 .469-.437 1.883 1.883 0 0 0 .539-.433c.157-.137.306-.286.466-.419.069-.058.17-.078.236-.138a6.879 6.879 0 0 1 .8-.733 4.618 4.618 0 0 0 .58-.49c.137-.125.266-.258.409-.375.089-.073.209-.108.294-.184a6.163 6.163 0 0 1 .667-.622 3.193 3.193 0 0 0 .507-.391c.152-.151.3-.308.462-.448.069-.061.185-.068.251-.131.161-.154.3-.333.46-.487a1.886 1.886 0 0 1 .454-.359c.232-.111.413-.231.429-.51 0-.027.017-.067.037-.075.148-.063.13-.225.2-.331s.15-.229.235-.336a2.727 2.727 0 0 1 .252-.273c.086-.082.182-.219.273-.219.193 0 .23-.138.315-.244.038-.047.107-.125.136-.115.231.08.264-.125.37-.218.067 0 .163 0 .183-.039.068-.133.133-.23.3-.152.012.006.039-.022.059-.032l.21-.109c.132-.069.263-.138.4-.206.157-.08.317-.155.472-.238a1.883 1.883 0 0 0 .358-.216c.137-.119.328-.112.46-.233.023-.021.109 0 .113-.012.04-.14.2-.1.246-.143a.88.88 0 0 1 .421-.2c.1-.033.163-.143.246-.215a.111.111 0 0 1 .078-.023 1.048 1.048 0 0 1 .184.5c-.12.244-.237.49-.355.735-.052.109-.1.219-.154.327-.084.172-.171.342-.257.513-.067.133-.136.264-.2.4s-.123.294-.191.439c-.085.18-.175.356-.266.534-.065.127-.132.254-.2.38-.076.142-.16.28-.23.423s-.12.3-.194.441c-.126.245-.271.481-.394.729s-.219.494-.335.738c-.144.3-.3.6-.443.9q-.3.611-.588 1.224c-.055.115-.1.233-.16.346-.077.149-.164.293-.241.442-.062.12-.117.243-.172.366-.068.151-.128.3-.2.454s-.162.319-.236.481c-.055.12-.1.245-.148.368-.07.173-.138.347-.213.518s-.171.335-.235.51-.1.375-.156.563c0 .017-.009.04-.021.048-.219.13-.044.445-.268.571a1.14 1.14 0 0 1-.137.523 1.544 1.544 0 0 0-.069.8c.079.338-.029.7.169 1.022a2.493 2.493 0 0 1 .184.6.271.271 0 0 0 .027.045c.092.17.186.339.274.51a3.409 3.409 0 0 0 .207.415c.166.236.354.455.531.683a3.782 3.782 0 0 0 .928 1.006c.294.183.554.421.843.619.177.122.447-.02.558.23.005.011.045.009.068.009h.854c.042 0 .11-.02.12-.047.042-.112.1-.137.217-.106.086.023.207-.026.27.018a4.383 4.383 0 0 1 .561.459c.143.138.157.152.267-.01a.976.976 0 0 0 .072-.177 4.3 4.3 0 0 1 .182-.428c.075-.137.192-.252.259-.392.113-.233.2-.479.3-.719.047-.112.1-.222.147-.332.082-.176.17-.35.248-.528a1.5 1.5 0 0 1 .193-.371 1.572 1.572 0 0 0 .173-.519c.008-.028.013-.063.032-.079.171-.142.15-.361.212-.544.043-.124.019-.265.153-.357.035-.024.04-.106.041-.161 0-.147-.008-.295-.008-.443 0-.215.007-.43 0-.645a.256.256 0 0 0-.051-.109c-.083-.14-.176-.275-.251-.419-.137-.265-.263-.535-.4-.82.07-.049.173-.128.283-.194.022-.014.08.006.106.028.045.038.073.094.116.133a.739.739 0 0 0 .125.077.414.414 0 0 0 .058-.134c.006-.133.01-.258.141-.341.024-.015.025-.076.027-.116.012-.217-.039-.439.147-.626.11-.11.136-.3.369-.248a.494.494 0 0 0 .359-.074 3.988 3.988 0 0 0 .474-.474.35.35 0 0 0 .09-.163c.038-.21.272-.343.225-.584 0-.007.014-.017.019-.026.033-.058.092-.117.093-.176 0-.237.242-.423.144-.68 0-.01.012-.039.026-.044.178-.072.124-.226.133-.36 0-.069 0-.185.033-.2.183-.074.094-.2.091-.321 0-.06.008-.157.044-.175.172-.087.116-.234.125-.369a.344.344 0 0 1 .048-.193.935.935 0 0 0 .068-.672c-.047-.075-.068-.165-.109-.244a1.321 1.321 0 0 0-.107-.152 1.147 1.147 0 0 0-.1.162c-.027.068-.036.144-.059.214a1.1 1.1 0 0 0-.077.223c-.018.23-.221.409-.176.655 0 .01-.027.024-.033.039a1.7 1.7 0 0 0-.089.212c-.063.215-.12.432-.181.648 0 .015-.026.025-.032.04a2.045 2.045 0 0 0-.081.215c-.062.215-.117.432-.178.647-.005.018-.033.031-.053.044-.12.077-.247.146-.36.231-.084.064-.17.121-.24.014a.2.2 0 0 1 .027-.3.343.343 0 0 0 .1-.179c.021-.082-.011-.226.03-.247.184-.1.1-.251.12-.385 0-.037.013-.1.035-.1.164-.062.108-.192.109-.308 0-.053.008-.143.035-.154.168-.064.11-.189.107-.306 0-.052.011-.144.037-.151.163-.048.112-.165.113-.274 0-.068.014-.181.051-.195.133-.049.092-.139.095-.232s.014-.194.064-.227c.092-.059.089-.12.085-.207s-.009-.211.029-.229c.153-.072.12-.2.132-.315.009-.093-.041-.218.117-.25.017 0 .025-.073.03-.112.03-.307.094-.366.4-.355.041 0 .08.017.121.017.192 0 .4.079.554-.115.1-.122.207-.233.31-.35.028-.032.05-.069.075-.1a.75.75 0 0 0-.119-.06c-.2-.06-.393-.114-.588-.174-.019-.006-.031-.033-.046-.05-.125-.141-.257-.276-.374-.423a.653.653 0 0 1-.072-.2c.235 0 .429-.007.623 0 .172.008.316 0 .3-.229 0-.021.01-.056.025-.062.156-.064.121-.192.115-.315 0-.038.006-.1.031-.113.214-.136.1-.4.24-.578a3.116 3.116 0 0 0 .195-.475 1.878 1.878 0 0 1 .268-.367c.158-.177.329-.343.51-.53.277 0 .583 0 .889-.006.051 0 .1-.072.174-.131.1.034.172-.015.2-.161a.36.36 0 0 1 .109-.156.664.664 0 0 0 .231-.4 2.816 2.816 0 0 1 .115-.464.118.118 0 0 1 .049-.07c.15-.071.113-.2.107-.32a.771.771 0 0 1 .015-.242 1.9 1.9 0 0 0 .133-.4c.022-.496.012-1.012.012-1.531zm-37.59 16.719a4.073 4.073 0 0 1-.246.488c-.069.122-.151.237-.248.387a3.686 3.686 0 0 1-.254-.289c-.018-.025.025-.089.029-.135a.041.041 0 0 0-.012-.029c0-.007 0-.006 0 0l.4-.794a.69.69 0 0 1 .147 0c.076.015.2.031.212.071a.516.516 0 0 1-.03.305zm.361-.783a.131.131 0 0 1-.121.031c-.156-.065-.184-.39-.067-.512a1.776 1.776 0 0 0 .189-.3c.037-.059.078-.115.118-.172l.04.04a.582.582 0 0 1 .11.126.476.476 0 0 1 .022.173l.042.025c-.113.198-.219.398-.335.592zm30.269-2.78c-.066.109-.145.211-.219.316l-.088-.035v-.433a2.965 2.965 0 0 1-.014-.527 1.691 1.691 0 0 1 .184-.445.212.212 0 0 1 .133.032.209.209 0 0 1 .061.123 1.318 1.318 0 0 1-.059.972zm2.13-5.538c0 .016-.027.026-.032.041-.072.23-.141.462-.215.692a1.94 1.94 0 0 1-.088.212c-.009.02-.042.036-.042.054a1.334 1.334 0 0 1-.155.521 2.351 2.351 0 0 1-.127.379 2.783 2.783 0 0 0-.179.646 1.289 1.289 0 0 1-.086.2c-.007.014-.038.025-.037.034.04.237-.141.411-.177.63a3.96 3.96 0 0 1-.186.643 2.7 2.7 0 0 1-.182.342c-.052-.261-.246-.421-.212-.676.027-.2.007-.413.016-.621 0-.061.016-.149.057-.176.147-.1.111-.235.089-.365s-.023-.215.1-.292c.038-.025.052-.121.042-.179a.2.2 0 0 1 .1-.241c.028-.015.062-.044.067-.072a2.7 2.7 0 0 1 .4-.806c.2-.364.4-.731.619-1.088a1.007 1.007 0 0 1 .225-.2l.067.033c-.027.1-.045.196-.066.292zm1.048-2.319a3.933 3.933 0 0 1-.429.444c-.044.04-.126.039-.19.057a.962.962 0 0 1 0-.183 1.67 1.67 0 0 1 .084-.3c.069-.169.214-.312.167-.518.184-.082.141-.242.143-.391 0-.04.06-.114.088-.113a.217.217 0 0 1 .161.08c.076.155.132.321.207.513a2.975 2.975 0 0 1-.233.412zm1.175-2.906c-.124.152-.072.363-.221.525-.12.131-.115.372-.184.557a1.732 1.732 0 0 1-.222.431c-.045.06-.165.064-.251.093-.271-.019-.291-.039-.231-.281a1.383 1.383 0 0 1 .148-.508c.183-.236.249-.534.442-.756.024-.027.077-.031.118-.039.079-.016.189.018.187-.128a.245.245 0 0 1 .157-.026c.03.015.071.117.055.139z" class="cls-1" transform="translate(-14.639)"/>
        <path id="패스_331" d="M-938.907-969.909a.424.424 0 0 0 .029-.379 2.163 2.163 0 0 0-1.07-.924 2.056 2.056 0 0 0-1.178-.216c-.106.016-.249-.022-.316.035a1.049 1.049 0 0 1-.676.16c-.115.009-.261-.025-.34.033a1.086 1.086 0 0 1-.655.16c-.1 0-.237-.025-.294.029-.206.2-.454.137-.691.168a1.07 1.07 0 0 0-.346.12c-.13.068-.24.078-.317-.058-.064-.112-.1-.237-.162-.353-.111-.217-.225-.432-.341-.645-.134-.246-.264-.5-.416-.729-.029-.044-.16-.043-.238-.029a1.349 1.349 0 0 0-.315.113c-.182.085-.422.133-.528.278-.255.348-.432.751-.669 1.115a1.632 1.632 0 0 1-.51.578 1.9 1.9 0 0 1-1.256.392c-.05-.009-.11.038-.167.055a1.769 1.769 0 0 1-.461.13c-.909.01-1.819 0-2.729 0a.586.586 0 0 1-.155-.046v-.075l.3-.088a.54.54 0 0 0-.724-.575 1.533 1.533 0 0 1-.31 0l.195-.251a.694.694 0 0 0-.669-.329c-.485.031-.973.009-1.46.007a.766.766 0 0 0-.821.785c-.007.2-.232.422-.392.365a.307.307 0 0 0-.38.133c-.262.323-.526.645-.778.975-.158.206-.293.431-.448.64-.25.339-.508.674-.764 1.009-.14.182-.194.442-.526.542.023-.145 0-.287.065-.348a.382.382 0 0 0 .09-.417.8.8 0 0 0-.373.436c-.079.164-.159.329-.251.486q-.246.42-.507.832c-.146.229-.3.451-.479.713a1.652 1.652 0 0 0-.16-.5.438.438 0 0 1-.109-.354c.022-.2.072-.413-.137-.573-.053-.04-.063-.155-.067-.237-.009-.2.114-.424-.16-.543-.013-.006-.02-.044-.017-.065a1.112 1.112 0 0 0-.157-.643 1.654 1.654 0 0 0-.674-.8c-.384-.205-.61-.639-1.074-.712-.141-.241-.4-.31-.628-.427-.132-.069-.295-.138-.429-.006-.22.217-.429.444-.637.672-.509.554-1.02 1.105-1.519 1.667-.326.368-.637.749-.945 1.131-.211.262-.409.536-.608.807-.171.233-.336.471-.5.707a.557.557 0 0 0-.026.064c-.1.2-.208.4-.31.6-.231.455-.46.911-.692 1.366-.116.228-.237.453-.352.681a1.043 1.043 0 0 0-.047.152 4.525 4.525 0 0 0-.148.472.887.887 0 0 0 .012.32 2.494 2.494 0 0 1 .129.69 1.368 1.368 0 0 0 .274.817c.1.2.225.4.343.589a2.519 2.519 0 0 0 .308.471.787.787 0 0 0 1.232-.319c.13-.345.3-.674.465-1.005s.342-.641.5-.968c.119-.243.22-.494.324-.743.049-.118.085-.242.133-.361.114-.278.232-.555.35-.832a.627.627 0 0 1 .057-.1c.114-.171.242-.333.338-.513.105-.2.157-.425.276-.611a1.023 1.023 0 0 0 .122-.667.387.387 0 0 1 .023-.214 5.578 5.578 0 0 1 .447-.649c.242-.286.508-.551.767-.822.035-.037.1-.086.135-.075.21.062.29-.129.429-.2.072-.039.141-.084.211-.126a.762.762 0 0 1 .091.257c-.007.2-.074.407.1.586a.3.3 0 0 1 .048.2c-.011.279.072.575-.138.824a.235.235 0 0 0-.021.136v1.352c0 .069.055.136.076.206.045.148.092.3.126.446.026.116.023.239.05.355.021.09.1.175.1.262-.005.409-.045.819-.04 1.228 0 .268.085.534.094.8.007.211-.08.431.154.579.026.017.034.068.04.105a.854.854 0 0 0 .5.751 1.045 1.045 0 0 1 .262.18.411.411 0 0 0 .614-.02c.169-.16.267-.149.4.042a.255.255 0 0 0 .08.078c.117.065.238.123.357.185.171.089.313 0 .349-.191.046-.242.12-.478.183-.717a.064.064 0 0 1 .029-.035c.294-.15.2-.482.3-.717s.368-.46.282-.779c0-.011.035-.029.046-.048a2.017 2.017 0 0 0 .127-.238c.032-.078.022-.182.072-.24.169-.2.028-.531.307-.672 0 0 .006-.016 0-.022-.118-.338.239-.534.25-.862.008-.236.266-.46.4-.7.116-.2.322-.418.305-.613-.042-.492.36-.735.516-1.108.076-.181.294-.294.285-.531a.117.117 0 0 1 .056-.093c.162-.056.153-.187.128-.307a.321.321 0 0 1 .281-.424c.317-.054.451-.3.626-.509.227-.272.443-.555.692-.806.14-.141.352-.21.5-.346.232-.213.435-.456.654-.683a.214.214 0 0 1 .137-.07c.2.007.3-.134.417-.252.095-.094.2-.183.341-.318v.887a.617.617 0 0 0 .059.214 2.076 2.076 0 0 1 .147.311 1.74 1.74 0 0 0 .385.857c.077.08.2.116.277.194a.244.244 0 0 0 .395 0 .37.37 0 0 1 .23-.116c.769 0 1.537.016 2.305.023a2.792 2.792 0 0 0 .288-.026l.033.056c-.072.073-.173.134-.211.223-.088.205-.145.424-.217.637a.471.471 0 0 1-.072.143c-.148.181-.137.425-.293.62a2.083 2.083 0 0 0-.212.681c-.014.047-.062.084-.093.126a.56.56 0 0 0-.1.148c-.074.245-.138.492-.206.739-.006.022-.014.055-.029.061-.187.079-.161.242-.165.4 0 .044-.01.113-.037.127-.163.084-.118.247-.169.374a1.4 1.4 0 0 0-.172.628c0 .027-.054.054-.07.088a2.219 2.219 0 0 0-.11.276 1.445 1.445 0 0 1-.1.362c-.082.127-.2.6-.088.687.22.178.149.4.165.617.02.272-.1.576.191.79.035.026.019.118.03.179s.006.139.043.176c.32.323.617.676 1.149.641a.556.556 0 0 0 .59-.585c0-.127 0-.308.073-.366.129-.1.091-.2.115-.319.065-.3.156-.589.238-.882 0-.014.021-.023.027-.037.04-.088.082-.175.119-.265a2.318 2.318 0 0 0 .124-.32 2.568 2.568 0 0 0 .043-.335l-.247.09-.1.043a1 1 0 0 1-.038-.343 5.049 5.049 0 0 1 .257-.708c.035-.079.131-.131.219-.214a.6.6 0 0 0 .051.149c.057.071.123.135.185.2.031-.078.059-.157.092-.233a.719.719 0 0 1 .118-.231.271.271 0 0 0 .028-.391.539.539 0 0 1 .014-.747.473.473 0 0 0 .041-.106c.06-.128.122-.255.183-.382l.07.016a.788.788 0 0 0 .108.221.293.293 0 0 0 .178.046 6.292 6.292 0 0 0 .2-.6c.006-.023-.062-.091-.1-.1s-.081.051-.1.09a.919.919 0 0 0-.059.173l-.071-.016a.445.445 0 0 1 .079-.465.258.258 0 0 0 .43.087c.187-.178-.04-.3-.1-.4a7.981 7.981 0 0 0 .52-.775c.1-.2.09-.473.214-.654a7.049 7.049 0 0 1 .711-.79c.015-.016.062-.012.091-.005.263.065.416-.114.535-.283.106-.149.166-.135.284-.038a.491.491 0 0 0 .737-.014.221.221 0 0 1 .1-.034c.225-.043.5.082.651-.209.011-.021.081-.016.124-.016.24 0 .481.014.721.011a.582.582 0 0 0 .184-.067 1.331 1.331 0 0 1 .408-.154c.41-.009.821.021 1.232.029a.587.587 0 0 0 .217-.051c.151-.06.321-.21.442-.177.283.078.38-.066.482-.262.07-.133.147-.135.239-.011.037.05.106.11.158.107.083 0 .225-.047.232-.092a.49.49 0 0 0-.054-.337.425.425 0 0 1 .03-.61zm-25.56.649a.593.593 0 0 1-.147.146c-.072.055-.151.1-.234.155-.086-.124-.117-.222.04-.308.073-.04.123-.121.2-.158a.491.491 0 0 1 .19-.01.594.594 0 0 1-.049.175zm7.781 2.26a.656.656 0 0 1 .487-.767.9.9 0 0 1-.487.767zm1-1.286c-.117.162-.248.314-.409.514a.751.751 0 0 1 .221-.728c.065-.028.157.009.236.016a.567.567 0 0 1-.048.198zm1.547-1.81c-.058-.329-.058-.329.387-.425-.042.245-.13.412-.387.421z" class="cls-1" transform="translate(-302.121 -100.458)"/>
        <path id="패스_332" d="M-685.4-971.042a1.334 1.334 0 0 1-.148-.661.326.326 0 0 0-.021-.159 6.318 6.318 0 0 1-.342-.61 2.148 2.148 0 0 0-1.1-1.018 1.523 1.523 0 0 0-.932-.247.98.98 0 0 1-.394-.114.559.559 0 0 0-.584.044.5.5 0 0 1-.464.037 1.356 1.356 0 0 0-.946-.2c-.48.009-.959.05-1.44.063-.061 0-.175-.081-.178-.129a.844.844 0 0 1 .13-.681.356.356 0 0 0 .03-.307 3.438 3.438 0 0 0-.284-.519c-.157-.258-.329-.506-.481-.767-.181-.311-.333-.336-.676-.234-.225.068-.251.263-.382.374-.3.256-.327.638-.5.948-.126.219-.153.494-.269.721a9.32 9.32 0 0 1-.552.909c-.2.3-.21.3-.478.13-.138.068-.268.127-.392.2a4.52 4.52 0 0 1-.607.346.687.687 0 0 0-.453.862.342.342 0 0 0 .068.088 1.74 1.74 0 0 1 .18.228c.165.3.322.6.486.912-.213.1-.163.29-.157.473a.47.47 0 0 1-.023.219c-.169.336-.35.666-.526 1a1.578 1.578 0 0 0-.22.432 4.639 4.639 0 0 0 0 .664c0 .08-.009.209-.056.232-.2.1-.149.256-.136.418.008.094.008.243-.046.279-.2.129-.167.309-.169.492a.612.612 0 0 1-.052.17c-.03.091-.055.185-.093.273-.045.105-.1.207-.153.308-.021.039-.081.08-.074.108.079.32-.205.451-.34.656a.449.449 0 0 1-.187.16c-.177.076-.365.128-.543.2-.041.017-.065.078-.093.122a1.123 1.123 0 0 1-.1.173c-.13.139-.182.722-.036.843.237.2.312.5.5.722a.955.955 0 0 1 .2.261c.147.455.577.576.917.8a.179.179 0 0 0 .114.016c.376-.052.768.108 1.134-.088.014-.008.048.031.075.033.093.01.206.048.272.009s.053-.159.07-.246a4.5 4.5 0 0 1 .112-.554c.052-.152.172-.281.224-.432a.3.3 0 0 0-.07-.256c-.15-.134-.092-.2.048-.265s.276-.14.419-.2a.713.713 0 0 1 .2-.019c-.022.067-.045.133-.065.2s-.04.151-.06.226a1.679 1.679 0 0 0 .3-.028 1.287 1.287 0 0 0 .264-.126c.057-.031.109-.07.163-.105-.039-.054-.068-.138-.12-.158-.176-.068-.181-.166-.05-.268.173-.135.363-.247.543-.374.074-.052.138-.119.207-.179l.141-.12c.149.41.148.406-.2.552-.042.018-.058.1-.086.149.093.032.211.117.274.087a4.3 4.3 0 0 0 .566-.36c.056-.039.146-.121.135-.147a.853.853 0 0 0-.188-.269c-.045-.044-.128-.048-.194-.07l-.011-.083c.142-.062.282-.125.425-.186a1.4 1.4 0 0 0 .314-.133c.284-.219.555-.455.831-.683.017-.014.045-.031.062-.026.178.05.282-.077.406-.162.144-.1.294-.189.441-.285.082-.054.159-.115.243-.165a2.317 2.317 0 0 0 .423-.248c.154-.146.267-.168.457.009-.1.085-.192.176-.3.25-.133.095-.277.174-.414.263-.057.037-.108.081-.164.118-.136.09-.274.179-.412.265a1.432 1.432 0 0 1-.265.148.467.467 0 0 0-.34.35.6.6 0 0 0 .579-.184c.1-.106.212-.258.339-.282.252-.048.366-.238.531-.381a.257.257 0 0 1 .1-.04c.054-.015.129-.008.16-.043.158-.175.3-.361.465-.556a.725.725 0 0 0 .712-.577c.178-.065.355-.119.52-.2.04-.019.06-.124.053-.186s-.065-.1-.114-.162c.43-.3.643-.894 1.3-.836l.085.238a1.333 1.333 0 0 0 .179-.149c.257-.32.514-.641.761-.968a6.685 6.685 0 0 1 .439-.626.6.6 0 0 0 .083-.709zm-4.017 3.9c.095-.37.474-.6.693-.408-.241.116-.282.523-.69.409zm1.624-3.877a2.905 2.905 0 0 1-.662.864c-.043.05-.111.129-.155.121-.441-.079-.622.277-.876.509s-.533.491-.8.736c-.093.086-.175.108-.272-.009a.226.226 0 0 0-.188-.032c-.026.006-.057.109-.042.152.073.2-.066.242-.186.2-.291-.105-.425.083-.587.25a1.344 1.344 0 0 1-.255.185c-.08.05-.172.083-.25.136a2.469 2.469 0 0 1-.792.429 1.825 1.825 0 0 0-.443.217c-.176.1-.342.216-.519.314-.151.084-.311.152-.466.23-.06.03-.114.07-.174.1s-.125.074-.15.056a.386.386 0 0 1-.092-.163.1.1 0 0 1 .008-.068c.106-.272.216-.544.32-.817.027-.07.037-.146.06-.218a1.1 1.1 0 0 1 .118-.316.352.352 0 0 0-.021-.5c-.1-.1-.13-.19-.022-.289l.236.106a.684.684 0 0 0 .087-.222c0-.137-.041-.274-.039-.411 0-.1.012-.245.076-.289.2-.142.179-.322.146-.517-.03-.179-.067-.367.229-.289a.607.607 0 0 1 .535-.222c.023 0 .042-.1.039-.092.184-.06.319-.1.452-.148.106-.037.211-.075.314-.12a.283.283 0 0 0 .139-.1.179.179 0 0 1 .242-.1c.13.034.256.022.253-.155.179-.01.347-.018.515-.029.022 0 .059-.006.064-.019.12-.3.368-.166.574-.168.124 0 .247.014.313-.136a.193.193 0 0 1 .151-.07c.31 0 .62.014.929.006a.977.977 0 0 0 .261-.1.942.942 0 0 1 .218-.059c.246-.023.493-.032.739-.054.181-.016.268.048.235.238a.311.311 0 0 0-.013.115c.072.297-.156.499-.246.748zm1.231 1.919l-.378.034.152-.3.26.2z" class="cls-1" transform="translate(-533.05 -97.004)"/>
        <path id="패스_333" d="M-759.57-969.148c-.105-.008-.258.009-.305-.052-.146-.185-.332-.137-.509-.136-.063 0-.126.056-.188.087a2.078 2.078 0 0 0 .123.229c.017.024.08.013.1.036s.085.088.08.126-.069.086-.113.093a1.487 1.487 0 0 1-.286-.015c.193-.191.076-.271-.032-.368-.262-.235-.5-.5-.91-.446a.484.484 0 0 1-.156-.033c-.147-.032-.294-.075-.443-.094-.242-.031-.486-.048-.735-.071.08-.251.087-.5.214-.624.206-.2.16-.417.163-.638.005-.328-.081-.4-.406-.423a2.232 2.232 0 0 1-.423-.085c-.106-.027-.205-.086-.312-.1a1.337 1.337 0 0 0-.418-.011c-.229.04-.475-.07-.685.171a7.6 7.6 0 0 1-.922.852 1.371 1.371 0 0 1-.582.335.861.861 0 0 0-.789.871c-.019.424.123.859-.155 1.269a8.68 8.68 0 0 0-.45.933c-.158.308-.346.6-.5.909a9.7 9.7 0 0 1-.464.961 12.755 12.755 0 0 1-.733 1.394c-.017.02-.011.06-.02.089-.062.213-.122.426-.188.637-.013.042-.058.072-.075.113a2.584 2.584 0 0 0-.107.3c-.035.128-.05.262-.089.39-.029.094-.114.179-.118.27-.014.365-.014.73 0 1.1.006.2-.091.441.169.574.018.009.025.06.02.088a1.341 1.341 0 0 0 .216.883 2.984 2.984 0 0 0 .36.614c.25.293.539.552.813.825.022.022.046.054.071.056.292.03.507.347.842.225a.109.109 0 0 1 .095.049c.05.182.194.146.321.145.194 0 .388-.024.58-.01a2.611 2.611 0 0 0 .748.078 5.422 5.422 0 0 1 1.2-.068c.061 0 .162 0 .174-.035.078-.194.244-.14.386-.158.179-.022.4.078.5-.169 0-.01.026-.017.04-.017.21 0 .434.051.575-.175.3.078.5-.184.771-.207.123-.011.276.007.309-.179 0-.02.067-.05.1-.043.388.091.63-.142.86-.391.039-.043.029-.13.042-.2a.689.689 0 0 0-.22 0c-.122.04-.232.115-.354.156-.237.079-.483.136-.719.218-.3.106-.6.233-.905.34a3.208 3.208 0 0 1-.339.064c-.21.049-.418.111-.629.157-.112.024-.255-.009-.339.048-.24.163-.37-.035-.56-.088.221-.13.406-.246.6-.347.035-.019.1.029.153.032.106.006.285.039.307 0 .1-.2.28-.148.427-.162.17-.016.345.022.418-.2.007-.021.1-.016.16-.017.158 0 .343.1.445-.123.012-.026.092-.031.14-.031.278 0 .519-.053.583-.29l-.2-.573c-.129.008-.376-.044-.433.037-.207.293-.583.05-.811.32-.115.137-.42.117-.64.16a1.983 1.983 0 0 0-.516.094c-.2.1-.324 0-.443-.1-.232-.189-.308-.2-.563-.016a.23.23 0 0 1-.213.011.69.69 0 0 0-.782-.055 1 1 0 0 1-.884.011.774.774 0 0 0-.236-.066.434.434 0 0 1-.439-.456c0-.133-.012-.265-.018-.4l-.1-.02-.2.441-.077-.014c-.014-.2-.032-.392-.039-.588 0-.034.051-.1.073-.1.045 0 .085.049.13.071.066.031.154.1.2.077a.7.7 0 0 0 .212-.62c-.014-.036-.06-.084-.09-.083a.175.175 0 0 0-.126.067.857.857 0 0 0-.072.191.691.691 0 0 1-.048-.668 1.935 1.935 0 0 0 .128-.548c.013-.289.024-.324.366-.373-.015.081-.025.153-.042.224a5.628 5.628 0 0 0-.144.636c-.009.078.087.168.136.252a2.044 2.044 0 0 0 .1-.276c.015-.071-.027-.162 0-.222.121-.249.255-.493.393-.734a.345.345 0 0 1 .162-.151c.186-.065.379-.107.568-.163a.169.169 0 0 0 .1-.077c.067-.177.188-.149.338-.128.128.018.34.018.384-.054.109-.177.227-.155.39-.141a.691.691 0 0 0 .454-.062.5.5 0 0 1 .291-.116c.268-.044.6.152.8-.191.008-.015.054-.011.083-.01.2 0 .4.011.6.008.146 0 .313.046.387-.163.013-.037.149-.045.227-.041.443.023.913.128 1.142-.425a.17.17 0 0 1 .047-.058c-.1-.216-.181-.411-.282-.594-.155-.281-.319-.556-.494-.825a.3.3 0 0 0-.2-.082 3.122 3.122 0 0 0-1.551.137c-.145.06-.363.013-.457.106a.545.545 0 0 1-.414.142.911.911 0 0 0-.236.059c-.081.028-.156.073-.236.1-.21.075-.471-.041-.65.171-.02.024-.111.017-.142-.008s-.025-.1-.008-.137c.058-.131.131-.255.2-.383.078-.155.152-.311.228-.467a.378.378 0 0 1 .052-.092q.135-.147.277-.288c.155-.154.269-.369.562-.272.113.037.332.028.371-.038.1-.161.208-.146.348-.141a3.311 3.311 0 0 0 .442-.01c.062-.006.157-.036.173-.079.055-.145.142-.117.269-.124.277-.014.609.16.82-.18.012-.019.081 0 .123-.005.264-.034.577.137.777-.192.024-.039.143-.029.218-.027s.14.04.2.03.19-.048.2-.1c.022-.085.012-.233-.043-.271-.162-.112-.116-.2 0-.285a1.4 1.4 0 0 1 .277-.12 1.313 1.313 0 0 0 .3-.135.385.385 0 0 1 .29-.11.443.443 0 0 0 .336-.27c.039-.173-.156-.12-.272-.129zm-6.674 3.766a.132.132 0 0 1-.081.041c-.035.008-.074.013-.106.023 0-.036 0-.075-.005-.112a.255.255 0 0 1 .013-.1 2.159 2.159 0 0 1 .172-.292l.163.117a2.007 2.007 0 0 1-.157.323zm.473-.74c-.007.007-.1-.047-.109-.081a.286.286 0 0 1 .032-.185 1.711 1.711 0 0 1 .238-.312.293.293 0 0 1 .2-.072c.037 0 .072.078.137.156-.178.176-.335.338-.499.493z" class="cls-1" transform="translate(-472.756 -101.187)"/>
        <g id="그룹_1" transform="translate(-1216.662 -1072.699)">
            <path id="패스_334" d="M-580.153-961.148a1.123 1.123 0 0 0-.4-.253c-.587-.137-1.057.229-1.572.4-.148.049-.291.111-.436.169a2.438 2.438 0 0 0-.462.191.866.866 0 0 1-.817.009 7.891 7.891 0 0 0-.9-.438.139.139 0 0 0-.1.008c-.233.112-.465.228-.708.348a.929.929 0 0 1 .059.136c.023.093.039.188.058.283a1.946 1.946 0 0 1-.365.015c-.055-.007-.11-.084-.149-.14a1.056 1.056 0 0 0-1.036-.431c-.3.022-.609 0-.913.025a1.364 1.364 0 0 0-.352.112c-.155.057-.307.122-.464.175-.213.071-.437.116-.641.206-.163.071-.329.114-.363-.086a1.047 1.047 0 0 1 .055-.646c.2-.347.5-.635.717-.971a2.91 2.91 0 0 0 .351-.767c.028-.094-.11-.236-.169-.358-.035-.071-.063-.146-.094-.219.077.013.2 0 .224.043.19.3.306.129.436-.048.261-.355.536-.7.789-1.061a10.722 10.722 0 0 0 .583-.914 11.888 11.888 0 0 0 .535-1.077c.144-.331.248-.678.374-1.016.039-.107.1-.208.134-.315a1.524 1.524 0 0 0 .15-.479 2.151 2.151 0 0 0-.243-1.25c-.226-.365-.39-.648-.836-.694-.083-.009-.159-.083-.241-.122-.127-.061-.256-.118-.384-.177a3.594 3.594 0 0 1-.839 1.527 12.176 12.176 0 0 0-.946 1.262c-.349.515-.67 1.048-1 1.576q-.53.854-1.05 1.715a5.8 5.8 0 0 0-.319.563c-.132.285-.233.584-.363.87-.1.224-.228.436-.346.652a8.6 8.6 0 0 0-.464.857c-.14.344-.221.712-.334 1.068-.016.052-.078.088-.1.139a4.45 4.45 0 0 0-.168.463c-.028.1.013.258-.044.3-.327.239-.246.574-.256.894-.006.2-.057.38-.327.341v.981a.636.636 0 0 1 .742.236c.239.319.434.7.937.656.032 0 .066.067.107.084a1.633 1.633 0 0 0 .436.159 3.031 3.031 0 0 0 .771 0 1.975 1.975 0 0 0 .629-.23c.336-.185.637-.441.985-.594s.74-.208 1.105-.327c.076-.025.121-.141.181-.214-.075-.04-.16-.125-.224-.111a2.655 2.655 0 0 0-.552.188c-.165.076-.311.156-.458-.069a4.922 4.922 0 0 1 1.512-.725c.557-.131 1.019-.568 1.633-.576.047 0 .088-.077.14-.1a3.229 3.229 0 0 1 .409-.149c.111-.03.276.01.336-.055.343-.368.788-.214 1.191-.259a.42.42 0 0 1 .326.082c.268.345.638.222.974.233.072 0 .148-.109.223-.168a1.622 1.622 0 0 0-.2-.16 3.1 3.1 0 0 1-.48-.259c-.136-.115-.114-.286.089-.292a2.1 2.1 0 0 0 1.186-.264 1.457 1.457 0 0 1 1.082-.347c.032.007.074-.052.116-.071.14-.065.283-.122.422-.19.078-.038.177-.074.214-.141.012-.041-.043-.16-.096-.203zm-9.99.252c-.045.013-.139-.007-.15-.035-.031-.082-.071-.2-.037-.26.11-.209.252-.4.41-.643.284.454.17.821-.223.934z" class="cls-2" transform="translate(593.896 970.49)"/>
            <path id="패스_335" d="M-500.281-957.906a2.96 2.96 0 0 1-.167-.317 2.954 2.954 0 0 0-.349-.689.683.683 0 0 1-.1-.846 1.8 1.8 0 0 0 .189-1.027c0-.13-.02-.319.054-.379.262-.215.207-.488.207-.758 0-.357.005-.715 0-1.072a.639.639 0 0 0-.054-.355 1.443 1.443 0 0 1-.2-1.025.612.612 0 0 0-.669-.705c-.148-.007-.318-.01-.3-.214s-.1-.243-.235-.332c-.256-.162-.463-.03-.708 0a2.177 2.177 0 0 0-1.157.684 22.505 22.505 0 0 0-2.3 2.557c-.362.422-.7.866-1.048 1.3-.134.166-.28.323-.409.493s-.239.371-.377.541c-.459.564-.928 1.12-1.392 1.68a1 1 0 0 0-.058.107c-.236.374-.484.741-.7 1.124s-.423.776-.617 1.172c-.136.277-.245.567-.363.852-.052.127-.163.275-.133.382a8.406 8.406 0 0 0 .405 1.118 4.479 4.479 0 0 0 .39.629.325.325 0 0 0 .132.117c.272.116.548.226.823.336a.386.386 0 0 0 .521-.25 2.165 2.165 0 0 1 .327-.749 1 1 0 0 0 .192-.673 1.087 1.087 0 0 1 .189-.474 1.611 1.611 0 0 1 .781-.54 8.3 8.3 0 0 0 .81-.422 1.175 1.175 0 0 0 .175-.1c.01-.008-.014-.094-.033-.1-.076-.019-.174-.052-.232-.021-.228.125-.434.292-.668.4a1.016 1.016 0 0 1-.4.01c.031-.1.036-.216.1-.281a2.886 2.886 0 0 1 .4-.3c-.154-.246-.022-.411.185-.541a.294.294 0 0 1 .218-.051c.043.016.075.132.066.2-.021.168.032.212.2.212.089 0 .18.1.264.157.038.028.052.091.091.115.145.091.817-.235.887-.484-.169.039-.307.081-.447.1a.859.859 0 0 1-.236-.038c.024-.09.021-.209.079-.266a.494.494 0 0 1 .609.061c.175.234.36.152.563.053a3.8 3.8 0 0 1 .445-.165c.076-.025.188-.012.228-.061.258-.32.606-.177.917-.176.073 0 .2.174.2.269s-.132.178-.222.247a1.064 1.064 0 0 1-.248.105 1.374 1.374 0 0 0 .216.178c.243.13.292.282.181.492a1.8 1.8 0 0 0-.171.5c-.032.169-.063.3-.275.288-.05 0-.1.036-.189.069.255.193.244.319.005.505-.148.115-.305.485-.25.542.2.212.147.342-.024.484a3.548 3.548 0 0 0 .217.4.815.815 0 0 0 .252.237c.24.133.49.251.741.362a.875.875 0 0 0 .4.111c.049 0 .105-.218.11-.338.01-.262-.047-.525.206-.732.05-.041-.023-.24-.052-.364-.02-.088-.11-.227-.086-.248.316-.272.152-.63.194-.949a2.088 2.088 0 0 1 .1-.366 3.766 3.766 0 0 0 .147-.434c.032-.167-.038-.411.054-.5.251-.24.2-.512.2-.792a.585.585 0 0 1 .6-.6c.133 0 .267.007.4-.006.269-.024.351-.216.199-.449zm-1.579-4.52c-.044.225-.057.457-.106.681-.041.187-.128.365-.172.552a2.458 2.458 0 0 0-.074.53.633.633 0 0 1-.548.679c-.226.041-.22.123-.085.278.224.257.157.4-.17.509-.378.128-.741.3-1.111.448-.028.011-.057.036-.084.035-.578-.036-.958.44-1.476.571-.145.037-.241.242-.38.343a.876.876 0 0 1-.293.081c0-.1-.053-.231-.008-.3.22-.338.473-.654.7-.987a10.256 10.256 0 0 1 1.05-1.366c.079-.082.043-.271.064-.41a1.187 1.187 0 0 1 .07-.383c.189-.349.267-.365.625-.188a8.581 8.581 0 0 1 1.682-1.9.4.4 0 0 1 .338-.048.285.285 0 0 1 .126.243c-.028.215-.107.421-.148.632z" class="cls-2" transform="translate(523.447 966.414)"/>
            <path id="패스_336" d="M-418.885-958.088a1.4 1.4 0 0 1-.162-.313c-.114-.279-.217-.563-.332-.841-.017-.041-.071-.07-.114-.1a9.665 9.665 0 0 1-1.021-.615c-.431-.336-.938-.207-1.4-.253a15.013 15.013 0 0 0-2.015.068.243.243 0 0 1-.2-.1.251.251 0 0 1 .068-.212 5.129 5.129 0 0 1 1.381-1.007c.311-.153.625-.3.925-.476a4.924 4.924 0 0 1 .767-.482c.238-.081.455-.158.535-.387.113-.325.471-.556.374-.963a.2.2 0 0 1 .072-.16c.16-.126.171-.236.005-.366-.042-.033-.048-.108-.076-.16-.157-.294-.3-.6-.484-.872a.572.572 0 0 0-.358-.171 2.636 2.636 0 0 0-1.537.405c-.318.144-.582.412-1 .372-.458-.045-.506-.052-.46-.526a.683.683 0 0 0-.372-.734 1.208 1.208 0 0 0-.95.133 6 6 0 0 0-.951 1.744 2.627 2.627 0 0 0-.257.554 2.146 2.146 0 0 1-.716 1.158c-.171.144-.322.312-.481.471a.288.288 0 0 0-.009.455.712.712 0 0 1 .068.862.791.791 0 0 0-.142.328c-.027.37-.389.641-.3 1.041 0 .019-.04.045-.052.073a7.783 7.783 0 0 0-.414.98c-.093.331-.37.606-.3.985 0 .026-.054.059-.071.095-.057.122-.112.246-.159.372a1.659 1.659 0 0 1-.086.288 1.042 1.042 0 0 0-.122 1.108.231.231 0 0 1 .039.145c-.07.247 0 .349.268.419.159.042.45.172.348.439a.571.571 0 0 1-.395.3c-.31.037-.335.209-.319.445.008.122.015.245.013.367a.779.779 0 0 0 .511.75c.211.11.532.171.508.528h.738c0-.274-.051-.579.369-.6.027 0 .051-.032.079-.045.3-.142.586-.3.891-.419a.394.394 0 0 0 .271-.542c-.057-.16 0-.253.162-.237a1.591 1.591 0 0 1 .319.136c.117.042.276.133.352.089a6.279 6.279 0 0 0 .926-.635c.227-.192.4-.417.755-.372.093.012.237-.106.3-.2.237-.337.679-.3.959-.547.012-.01.04 0 .06 0a.511.511 0 0 0 .556-.285.534.534 0 0 1 .3-.179c.213.24.375.109.562-.034.378-.288.767-.56 1.182-.861a1.273 1.273 0 0 1-.184-.141c-.046-.058-.128-.16-.112-.183a.382.382 0 0 1 .212-.14.291.291 0 0 1 .226.048c.177.161.3.057.419-.065a.835.835 0 0 0 .031-.935zm-6.451-4.151c.01-.015.041-.034.037-.041-.09-.143.094-.232.1-.355a.159.159 0 0 0-.028-.078c-.053-.1-.025-.155.1-.171.084-.011.092-.051.109-.109a1.637 1.637 0 0 1 .124-.305c.027-.052.224-.042.3 0a.5.5 0 0 0 .182.056c.107.009.216 0 .324 0a.587.587 0 0 0 .331-.063.565.565 0 0 1 .238-.026c.088 0 .154-.01.136-.11 0-.02.066-.064.107-.068.025 0 .089.052.084.074-.021.1.046.1.127.1s.165.006.246 0a.311.311 0 0 1 .24.083c.052.043.055.073 0 .115a2.246 2.246 0 0 1-.507.34c-.158.062-.311.133-.465.2a.272.272 0 0 0-.075.057.354.354 0 0 1-.312.119c-.148-.044-.225.046-.31.115a.282.282 0 0 1-.24.08c-.032-.005-.07.018-.106.028-.167.044-.333.093-.5.13-.125.027-.16-.089-.247-.127-.014.001-.004-.029.005-.044zm4.385 4.162a5.389 5.389 0 0 1-1.2.968c-.374.176-.737.377-1.1.574a.676.676 0 0 0-.178.164.774.774 0 0 1-.74.339c-.351-.126-.533.131-.735.326a.6.6 0 0 1-.568.227c-.076-.015-.167.052-.251.079-.4.125-.79.265-1.193.37-.3.077-.38-.253-.584-.361-.01-.005.013-.092.035-.134s.1-.1.088-.116c-.212-.408.222-.66.235-1.009a.519.519 0 0 0-.065-.221c-.126-.272-.059-.441.228-.487.2-.032.219-.145.258-.311a5.231 5.231 0 0 1 .295-.869c.063-.148.531-.119.71-.006a1.036 1.036 0 0 0 .432.159c.253.026.511.006.767.007a1.192 1.192 0 0 0 .784-.18c.134-.1.372-.065.564-.073.208-.009.366-.03.322-.313-.009-.056.157-.182.252-.194.06-.008.21.149.2.209-.05.273.109.292.3.295a5.225 5.225 0 0 0 .584 0 .67.67 0 0 1 .568.235c.12.117.127.199-.007.322z" class="cls-2" transform="translate(453.736 966.688)"/>
        </g>
    </g>
</svg>
