<svg width="3300" height="600" viewBox="0 0 3300 600" fill="none" xmlns="http://www.w3.org/2000/svg">
<path fill-rule="evenodd" clip-rule="evenodd" d="M742.345 231.971V449.197C742.345 463.212 747.221 475.28 756.975 485.401C766.728 495.134 778.627 500 792.672 500C806.717 500 818.616 495.134 828.37 485.401C838.123 475.28 843 463.212 843 449.197V181.168C843 159.367 835.002 140.487 819.007 124.526C803.011 108.175 784.089 100 762.242 100C745.076 100 729.47 105.061 715.425 115.182C701.38 124.915 691.432 137.762 685.58 153.723L621.207 325.985L557.42 153.723C551.958 137.762 542.205 124.915 528.16 115.182C514.115 105.061 498.509 100 481.343 100C459.106 100 439.989 107.981 423.993 123.942C407.998 139.903 400 158.978 400 181.168V449.197C400 463.212 404.877 475.28 414.63 485.401C424.384 495.134 436.283 500 450.328 500C464.373 500 476.272 495.134 486.025 485.401C495.778 475.28 500.655 463.212 500.655 449.197V231.971L594.288 480.73C598.97 493.577 607.943 500 621.207 500C634.862 500 644.03 493.577 648.712 480.73L742.345 231.971ZM1285.34 231.971V449.197C1285.34 463.212 1290.22 475.28 1299.97 485.401C1309.73 495.134 1321.63 500 1335.67 500C1349.72 500 1361.62 495.134 1371.37 485.401C1381.12 475.28 1386 463.212 1386 449.197V181.168C1386 159.367 1378 140.487 1362.01 124.526C1346.01 108.175 1327.09 100 1305.24 100C1288.08 100 1272.47 105.061 1258.43 115.182C1244.38 124.915 1234.43 137.762 1228.58 153.723L1164.21 325.985L1100.42 153.723C1094.96 137.762 1085.2 124.915 1071.16 115.182C1057.11 105.061 1041.51 100 1024.34 100C1002.11 100 982.989 107.981 966.993 123.942C950.998 139.903 943 158.978 943 181.168V449.197C943 463.212 947.877 475.28 957.63 485.401C967.383 495.134 979.283 500 993.328 500C1007.37 500 1019.27 495.134 1029.03 485.401C1038.78 475.28 1043.66 463.212 1043.66 449.197V231.971L1137.29 480.73C1141.97 493.577 1150.94 500 1164.21 500C1177.86 500 1187.03 493.577 1191.71 480.73L1285.34 231.971Z" fill="#EA168D"/>
<path d="M200 300C200 272.386 222.386 250 250 250C277.614 250 300 272.386 300 300V450C300 477.614 277.614 500 250 500C222.386 500 200 477.614 200 450V300Z" fill="#EA168D"/>
<path d="M300 150C300 177.614 277.614 200 250 200C222.386 200 200 177.614 200 150C200 122.386 222.386 100 250 100C277.614 100 300 122.386 300 150Z" fill="#EA168D"/>
<path d="M1846.57 321.126V403.895C1846.57 422.417 1840.42 437.08 1828.11 447.885C1788.11 482.613 1741.39 499.977 1687.93 499.977C1631.78 500.749 1583.9 482.034 1544.29 443.833C1504.67 405.632 1485.25 357.591 1486.02 299.711C1485.25 241.83 1504.67 193.982 1544.29 156.167C1583.9 117.966 1631.78 99.2512 1687.93 100.023C1740.62 100.023 1784.27 117.387 1818.88 152.115C1825.03 158.289 1828.11 165.814 1828.11 174.689C1828.11 183.178 1825.03 190.509 1818.88 196.683C1813.11 202.857 1805.81 205.944 1796.96 205.944C1788.11 205.944 1780.62 202.857 1774.46 196.683C1750.23 172.374 1721.39 160.219 1687.93 160.219C1649.86 160.219 1618.13 173.531 1592.74 200.156C1567.75 226.395 1555.25 259.58 1555.25 299.711C1555.25 339.455 1567.94 372.833 1593.32 399.844C1618.7 426.469 1650.24 439.781 1687.93 439.781C1723.31 439.781 1753.69 428.205 1779.08 405.053V344.857H1690.81C1682.74 344.857 1675.62 341.963 1669.47 336.175C1663.7 330.387 1660.82 323.249 1660.82 314.76C1660.82 306.656 1663.7 299.711 1669.47 293.923C1675.62 288.135 1682.74 285.24 1690.81 285.24H1810.81C1834.65 285.24 1846.57 297.202 1846.57 321.126Z" fill="white"/>
<path d="M1915.1 465.249V133.594C1915.1 125.104 1917.99 117.966 1923.76 112.178C1929.91 106.004 1937.22 102.917 1945.68 102.917C1953.75 102.917 1960.68 106.004 1966.45 112.178C1972.6 117.966 1975.68 125.104 1975.68 133.594V465.249C1975.68 473.738 1972.6 481.069 1966.45 487.243C1960.68 493.031 1953.75 495.925 1945.68 495.925C1937.22 495.925 1929.91 493.031 1923.76 487.243C1917.99 481.069 1915.1 473.738 1915.1 465.249Z" fill="white"/>
<path d="M2036.95 352.382C2036.95 311.094 2050.21 276.365 2076.75 248.197C2103.29 220.028 2137.71 205.944 2180.01 205.944C2222.7 205.944 2257.31 220.028 2283.85 248.197C2310.39 276.365 2323.66 311.094 2323.66 352.382C2323.66 394.056 2310.39 428.977 2283.85 457.146C2257.31 485.314 2222.7 499.398 2180.01 499.398C2137.71 499.398 2103.29 485.314 2076.75 457.146C2050.21 428.977 2036.95 394.056 2036.95 352.382ZM2260.78 352.382C2260.78 326.914 2253.47 305.113 2238.85 286.977C2224.24 268.841 2204.63 259.773 2180.01 259.773C2155.4 259.773 2135.79 268.841 2121.17 286.977C2106.94 304.727 2099.83 326.529 2099.83 352.382C2099.83 379.007 2106.94 401.194 2121.17 418.944C2135.4 436.694 2155.01 445.569 2180.01 445.569C2205.01 445.569 2224.62 436.694 2238.85 418.944C2253.47 400.809 2260.78 378.621 2260.78 352.382Z" fill="white"/>
<path d="M2658.39 352.961C2658.39 397.722 2646.85 433.415 2623.77 460.04C2601.08 486.279 2571.47 499.398 2534.93 499.398C2498.01 499.398 2468.21 484.349 2445.52 454.251V465.249C2445.52 473.738 2442.44 481.069 2436.29 487.243C2430.52 493.031 2423.6 495.925 2415.52 495.925C2407.06 495.925 2399.75 493.031 2393.6 487.243C2387.83 481.069 2384.94 473.738 2384.94 465.249V133.594C2384.94 125.104 2387.83 117.966 2393.6 112.178C2399.75 106.004 2407.06 102.917 2415.52 102.917C2423.6 102.917 2430.52 106.004 2436.29 112.178C2442.44 117.966 2445.52 125.104 2445.52 133.594V251.67C2467.44 221.186 2497.24 205.944 2534.93 205.944C2571.08 205.944 2600.7 219.45 2623.77 246.461C2646.85 273.086 2658.39 308.586 2658.39 352.961ZM2574.16 420.102C2588.78 403.124 2596.08 380.743 2596.08 352.961C2596.08 325.178 2588.78 302.798 2574.16 285.819C2559.93 268.455 2540.89 259.773 2517.05 259.773C2503.21 259.773 2489.55 263.439 2476.09 270.77C2462.63 278.102 2452.44 287.17 2445.52 297.974V408.526C2452.06 418.944 2462.05 427.819 2475.51 435.151C2489.36 442.097 2503.21 445.569 2517.05 445.569C2540.89 445.569 2559.93 437.08 2574.16 420.102Z" fill="white"/>
<path d="M2950.9 307.235V465.249C2950.9 473.738 2947.82 481.069 2941.67 487.243C2935.9 493.031 2928.78 495.925 2920.32 495.925C2912.24 495.925 2905.13 493.031 2898.98 487.243C2893.21 481.069 2890.32 473.738 2890.32 465.249V462.355C2868.79 487.05 2838.79 499.398 2800.33 499.398C2774.56 499.398 2751.87 491.102 2732.26 474.51C2713.03 457.531 2703.41 434.958 2703.41 406.79C2703.41 377.849 2712.84 355.469 2731.68 339.648C2750.91 323.827 2773.79 315.917 2800.33 315.917C2839.56 315.917 2869.56 327.879 2890.32 351.803V310.129C2890.32 293.923 2884.36 281.189 2872.44 271.928C2860.52 262.667 2844.75 258.037 2825.14 258.037C2802.06 258.037 2780.33 264.982 2759.95 278.874C2756.1 281.575 2751.49 282.925 2746.1 282.925C2739.57 282.925 2733.8 280.61 2728.8 275.98C2724.18 270.963 2721.87 265.175 2721.87 258.615C2721.87 249.74 2725.34 243.181 2732.26 238.936C2761.87 216.942 2796.1 205.944 2834.94 205.944C2870.71 205.944 2898.98 214.433 2919.74 231.412C2940.51 248.004 2950.9 273.279 2950.9 307.235ZM2890.32 428.784V386.531C2876.09 367.238 2853.98 357.591 2823.98 357.591C2806.68 357.591 2792.45 362.222 2781.29 371.482C2770.14 380.743 2764.56 392.898 2764.56 407.947C2764.56 422.996 2770.14 435.151 2781.29 444.412C2792.45 453.287 2806.68 457.724 2823.98 457.724C2853.98 457.724 2876.09 448.078 2890.32 428.784Z" fill="white"/>
<path d="M3029.43 465.249V133.594C3029.43 125.104 3032.31 117.966 3038.08 112.178C3044.23 106.004 3051.54 102.917 3060 102.917C3068.08 102.917 3075 106.004 3080.77 112.178C3086.92 117.966 3090 125.104 3090 133.594V465.249C3090 473.738 3086.92 481.069 3080.77 487.243C3075 493.031 3068.08 495.925 3060 495.925C3051.54 495.925 3044.23 493.031 3038.08 487.243C3032.31 481.069 3029.43 473.738 3029.43 465.249Z" fill="white"/>
</svg>
