<svg width="133" height="50" viewBox="0 0 133 50" fill="none" xmlns="http://www.w3.org/2000/svg">
<path d="M19.7999 24.6803L27.7199 9.52025C27.7623 9.37597 27.7716 9.22399 27.7471 9.07562C27.7226 8.92725 27.665 8.78633 27.5785 8.66332C27.492 8.5403 27.3789 8.43837 27.2475 8.36513C27.1162 8.29188 26.9701 8.24921 26.8199 8.24027H23.7499C23.5399 8.21718 23.3291 8.27604 23.1614 8.40459C22.9937 8.53314 22.8822 8.72146 22.8499 8.93026L14.6799 24.7103L25.1099 44.9403C25.1533 45.1399 25.2696 45.3161 25.4361 45.4345C25.6025 45.5529 25.8072 45.6049 26.0099 45.5803H29.0899C29.2189 45.5836 29.3472 45.5595 29.4661 45.5095C29.5851 45.4595 29.6921 45.3848 29.7799 45.2903C29.9443 45.1094 30.0368 44.8747 30.0399 44.6303C30.0399 44.4803 19.7999 24.6803 19.7999 24.6803Z" fill="#43AAF3"/>
<path d="M5.15004 24.7296L0.550046 33.4396C0.507674 33.5839 0.49838 33.7359 0.52287 33.8843C0.547361 34.0326 0.605002 34.1736 0.691495 34.2966C0.777988 34.4196 0.891111 34.5215 1.02244 34.5948C1.15377 34.668 1.29993 34.7107 1.45004 34.7196H4.52005C4.73006 34.7427 4.94087 34.6838 5.10855 34.5553C5.27622 34.4267 5.38781 34.2384 5.42004 34.0296L10.27 24.6996L5.80005 16.1596C5.75466 15.9611 5.63788 15.7862 5.47194 15.6682C5.30599 15.5502 5.10244 15.4973 4.90004 15.5196H1.82005C1.69011 15.5162 1.56099 15.5413 1.44178 15.5931C1.32258 15.645 1.21617 15.7223 1.13005 15.8196C0.965641 16.0005 0.873141 16.2352 0.870038 16.4796C0.870038 16.6196 5.15004 24.7296 5.15004 24.7296Z" fill="#43AAF3"/>
<path d="M14.67 14.8004L11.67 8.88035C11.6246 8.68184 11.5078 8.50695 11.3419 8.38894C11.1759 8.27093 10.9724 8.21805 10.77 8.24035H7.68999C7.56005 8.23693 7.43093 8.26201 7.31172 8.31384C7.19252 8.36567 7.08611 8.44299 6.99998 8.54035C6.83558 8.72118 6.74309 8.95596 6.73999 9.20035C6.73999 9.29035 9.81998 15.2604 12.15 19.7804L14.67 14.8004Z" fill="#FF00FF"/>
<path d="M12.09 29.6494L6.73997 39.8994C6.68634 40.0436 6.67012 40.199 6.69285 40.3512C6.71559 40.5033 6.77652 40.6472 6.86996 40.7694C6.95612 40.8936 7.07128 40.995 7.20545 41.0647C7.33963 41.1344 7.48877 41.1703 7.63996 41.1694H10.72C10.9295 41.19 11.1391 41.1302 11.3062 41.0021C11.4733 40.874 11.5855 40.6871 11.62 40.4794L14.62 34.6094L12.09 29.6494Z" fill="#FF00FF"/>
<path d="M55.8901 25.3806L60.6401 37.8806H58.7301C58.5003 37.8869 58.2736 37.8272 58.0768 37.7084C57.88 37.5896 57.7215 37.4169 57.6201 37.2106L54.5201 28.7506L51.1401 37.8806H48.3701L53.1201 25.3806L48.3401 12.8506H50.0701C51.2901 12.8506 51.4201 13.6106 51.4201 13.6106L54.5201 22.0106L57.8701 12.8506H60.6701L55.8901 25.3806Z" fill="white"/>
<path d="M78.09 14.2301V37.8801H75.5V12.8801H76.79C76.9658 12.8771 77.1404 12.9103 77.3028 12.9777C77.4652 13.0452 77.612 13.1454 77.7339 13.272C77.8559 13.3987 77.9505 13.5491 78.0117 13.714C78.073 13.8788 78.0996 14.0545 78.09 14.2301Z" fill="white"/>
<path d="M93.12 18.3707C93.103 16.8857 93.6622 15.452 94.68 14.3707C95.68 13.2407 97.78 12.9307 99.27 12.9307C100.76 12.9307 102.82 13.2407 103.86 14.3707C104.878 15.452 105.437 16.8857 105.42 18.3707V32.4307C105.434 33.915 104.875 35.3476 103.86 36.4307C102.86 37.5507 100.75 37.8607 99.27 37.8607C97.79 37.8607 95.74 37.5507 94.69 36.4307C93.6685 35.3509 93.1057 33.917 93.12 32.4307V18.3707ZM95.64 32.4307C95.6274 33.219 95.9255 33.9805 96.47 34.5507C97.03 35.1407 98.47 35.1807 99.27 35.1807C100.07 35.1807 101.51 35.1807 102.06 34.5507C102.608 33.9821 102.91 33.2204 102.9 32.4307V18.3707C102.913 17.5775 102.611 16.8117 102.06 16.2407C101.51 15.6607 100.06 15.6107 99.27 15.6107C98.48 15.6107 97.03 15.6107 96.47 16.2407C95.9231 16.8133 95.6247 17.579 95.64 18.3707V32.4307Z" fill="white"/>
<path d="M130.21 31.2206V12.8506H132.8V37.8506H131C130.741 37.8714 130.481 37.8126 130.256 37.6822C130.031 37.5518 129.851 37.3559 129.74 37.1206L123.12 19.6206V37.8806H120.53V12.8806H122.4C122.674 12.848 122.951 12.9135 123.182 13.0654C123.412 13.2173 123.582 13.4458 123.66 13.7106L130.21 31.2206Z" fill="white"/>
<path d="M36.76 0.779297V49.6293" stroke="white" stroke-width="0.5" stroke-miterlimit="10"/>
</svg>
