<?xml version="1.0" encoding="utf-8"?>
<!-- Generator: Adobe Illustrator 23.0.0, SVG Export Plug-In . SVG Version: 6.00 Build 0)  -->
<svg version="1.1" id="Layer_1" xmlns="http://www.w3.org/2000/svg" xmlns:xlink="http://www.w3.org/1999/xlink" x="0px" y="0px"
	 viewBox="0 0 435.6 435.6" style="enable-background:new 0 0 435.6 435.6;" xml:space="preserve">
<style type="text/css">
	.st0{fill:#F5B60E;}
</style>
<path class="st0" d="M317.8,81.8h-200c-19.9,0-36,16.1-36,36v200c0,19.9,16.1,36,36,36h200c19.9,0,36-16.1,36-36v-200
	C353.8,97.9,337.7,81.8,317.8,81.8z M323.8,297.8c0,14.4-11.6,26-26,26h-160c-14.4,0-26-11.6-26-26v-160c0-14.4,11.6-26,26-26h160
	c14.4,0,26,11.6,26,26V297.8z"/>
<path class="st0" d="M193.7,224.8h22l-11-37.7L193.7,224.8z"/>
<path class="st0" d="M297.8,123.8h-160c-7.7,0-14,6.3-14,14v160c0,7.7,6.3,14,14,14h160c7.7,0,14-6.3,14-14v-160
	C311.8,130.1,305.6,123.8,297.8,123.8z M226.8,252.4c-1.9,0-3.4-0.4-4-2.2l-4.5-15.4h-27.2l-4.5,15.4c-0.6,1.8-2.1,2.3-4.1,2.3
	c-3.2,0-7.3-2-7.3-4.9c0-0.3,0-0.7,0.1-1l21.9-71.3c0.9-2.6,4.1-4,7.4-4c3.3,0,6.6,1.3,7.5,4l21.8,71.3c0.1,0.3,0.2,0.7,0.2,1
	C234.2,250.3,230.1,252.4,226.8,252.4z M254.8,248.5c0,2.5-3,3.9-6,3.9c-2.9,0-6-1.3-6-3.9v-72.8c0-2.6,3.1-3.7,6-3.7
	c3,0,6,1.1,6,3.7V248.5z"/>
<path class="st0" d="M239.8,373.6c-3.3,0-6,2.7-6,6v50c0,3.3,2.7,6,6,6c3.3,0,6-2.7,6-6v-50C245.8,376.3,243.1,373.6,239.8,373.6z"
	/>
<path class="st0" d="M195.8,373.6c-3.3,0-6,2.7-6,6v50c0,3.3,2.7,6,6,6c3.3,0,6-2.7,6-6v-50C201.8,376.3,199.1,373.6,195.8,373.6z"
	/>
<path class="st0" d="M152.8,373.6c-3.3,0-6,2.7-6,6v50c0,3.3,2.7,6,6,6c3.3,0,6-2.7,6-6v-50C158.8,376.3,156.1,373.6,152.8,373.6z"
	/>
<path class="st0" d="M282.8,373.6c-3.3,0-6,2.7-6,6v50c0,3.3,2.7,6,6,6c3.3,0,6-2.7,6-6v-50C288.8,376.3,286.1,373.6,282.8,373.6z"
	/>
<path class="st0" d="M189.8,6v50c0,3.3,2.7,6,6,6c3.3,0,6-2.7,6-6V6c0-3.3-2.7-6-6-6C192.5,0,189.8,2.7,189.8,6z"/>
<path class="st0" d="M233.8,6v50c0,3.3,2.7,6,6,6c3.3,0,6-2.7,6-6V6c0-3.3-2.7-6-6-6C236.5,0,233.8,2.7,233.8,6z"/>
<path class="st0" d="M282.8,62c3.3,0,6-2.7,6-6V6c0-3.3-2.7-6-6-6c-3.3,0-6,2.7-6,6v50C276.8,59.3,279.5,62,282.8,62z"/>
<path class="st0" d="M146.8,6v50c0,3.3,2.7,6,6,6c3.3,0,6-2.7,6-6V6c0-3.3-2.7-6-6-6C149.5,0,146.8,2.7,146.8,6z"/>
<path class="st0" d="M429.6,189.8h-50c-3.3,0-6,2.7-6,6c0,3.3,2.7,6,6,6h50c3.3,0,6-2.7,6-6C435.6,192.5,433,189.8,429.6,189.8z"/>
<path class="st0" d="M429.6,233.8h-50c-3.3,0-6,2.7-6,6c0,3.3,2.7,6,6,6h50c3.3,0,6-2.7,6-6C435.6,236.5,433,233.8,429.6,233.8z"/>
<path class="st0" d="M429.6,276.8h-50c-3.3,0-6,2.7-6,6c0,3.3,2.7,6,6,6h50c3.3,0,6-2.7,6-6C435.6,279.5,433,276.8,429.6,276.8z"/>
<path class="st0" d="M429.6,146.8h-50c-3.3,0-6,2.7-6,6c0,3.3,2.7,6,6,6h50c3.3,0,6-2.7,6-6C435.6,149.5,433,146.8,429.6,146.8z"/>
<path class="st0" d="M56,233.8H6c-3.3,0-6,2.7-6,6c0,3.3,2.7,6,6,6h50c3.3,0,6-2.7,6-6C62,236.5,59.3,233.8,56,233.8z"/>
<path class="st0" d="M56,189.8H6c-3.3,0-6,2.7-6,6c0,3.3,2.7,6,6,6h50c3.3,0,6-2.7,6-6C62,192.5,59.3,189.8,56,189.8z"/>
<path class="st0" d="M56,146.8H6c-3.3,0-6,2.7-6,6c0,3.3,2.7,6,6,6h50c3.3,0,6-2.7,6-6C62,149.5,59.3,146.8,56,146.8z"/>
<path class="st0" d="M56,276.8H6c-3.3,0-6,2.7-6,6c0,3.3,2.7,6,6,6h50c3.3,0,6-2.7,6-6C62,279.5,59.3,276.8,56,276.8z"/>
</svg>
