<svg xmlns="http://www.w3.org/2000/svg" viewBox="0 0 530.4 571.29"><defs><style>.cls-1{fill:#f5cc2a;}.cls-2{fill:#fff;}</style></defs><title>Asset 1</title><g id="Layer_2" data-name="Layer 2"><g id="Layer_1-2" data-name="Layer 1"><path class="cls-1" d="M530.39,189.35q0,78.35,0,156.7c0,15.51-5.79,28.49-16.79,39.26-7.37,7.2-16.54,10.58-26.34,13.12-41.57,10.75-83,21.85-124.59,32.7C342.16,436.48,326,423.77,326,402.5q0-159.27,0-318.55c0-21.74,16.27-42.88,37.27-48.42Q428,18.46,492.74,1.43c5.67-1.49,11.35-2,17.11-.54a27.39,27.39,0,0,1,20.09,24.39c.28,3.3.43,6.62.43,9.93Q530.42,112.28,530.39,189.35Z"/><path class="cls-1" d="M.08,243.45C.08,190.89.25,138.34,0,85.78c-.11-23.09,17.89-45,38.58-50.14C81.79,24.86,124.74,13.06,167.83,1.81c20.36-5.32,36.49,7.36,36.5,28.46q0,53.46.06,106.93c0,2.53-.52,3.68-3.2,4.33-10.79,2.65-21.51,5.58-32.23,8.45a51.58,51.58,0,0,0-37.85,49.57q0,93.76,0,187.53c0,5.68-.09,11.35,0,17,0,2-.43,2.94-2.57,3.49-30.8,8-61.54,16.26-92.36,24.22-19.41,5-35.38-7.07-36-27.17-.33-10.26-.11-20.55-.11-30.82Q.07,308.63.08,243.45Z"/><path class="cls-2" d="M302.65,143.15l-113.17,30.1s-33.37,12-33.73,45.71-.37,325.71-.37,325.71,4,33.37,35.19,25.39S325.5,534.88,325.5,534.88s34.56-10.52,35.18-50.78c.48-31.44-.36-26.84-.36-26.84s-22.69,3.28-38.45-8.71c-17.41-13.24-19.59-19.58-19.95-43.16S302.65,143.15,302.65,143.15Z"/></g></g></svg>