<?xml version="1.0" encoding="utf-8"?>
<!-- Generator: Adobe Illustrator 23.0.0, SVG Export Plug-In . SVG Version: 6.00 Build 0)  -->
<svg version="1.1" id="Capa_1" xmlns="http://www.w3.org/2000/svg" xmlns:xlink="http://www.w3.org/1999/xlink" x="0px" y="0px"
	 viewBox="0 0 512 512" style="enable-background:new 0 0 512 512;" xml:space="preserve">
<style type="text/css">
	.st0{fill:#F5B60E;}
</style>
<g>
	<path class="st0" d="M206.3,293h72.2c33.2,0,60.8,24.1,66.5,55.6l63.3-36.5c3.9-2.2,7.9-4.1,12.1-5.5
		c-19.4-20.1-52.2-44.5-99.3-48.9v-38.2c14.9-1.2,39.4-6,56.5-23.1v0c18.6-18.6,22.6-45.9,23.3-60.6c0.2-4.2-1.4-8.4-4.4-11.4
		c-3-3-7.1-4.6-11.4-4.4c-14.7,0.7-42,4.7-60.6,23.3c-1.2,1.2-2.4,2.5-3.5,3.8V99.4c14.9-1.2,39.4-6,56.5-23.1c0,0,0,0,0,0
		c18.6-18.6,22.6-46,23.3-60.6c0.2-4.2-1.4-8.4-4.4-11.4c-3-3-7.1-4.6-11.4-4.4c-14.7,0.7-42,4.7-60.6,23.3
		c-9.4,9.4-15.1,21.1-18.5,32.1c-3.4-11.1-9.1-22.7-18.5-32.1C269,4.8,241.6,0.8,226.9,0c-4.2-0.2-8.4,1.4-11.4,4.4
		c-3,3-4.6,7.1-4.4,11.4c0.7,14.7,4.7,42,23.3,60.6c17.1,17.1,41.6,21.8,56.5,23.1v47.7c-1.1-1.3-2.3-2.5-3.5-3.8
		c-18.6-18.6-45.9-22.6-60.6-23.3c-4.2-0.2-8.4,1.4-11.4,4.4c-3,3-4.6,7.1-4.4,11.4c0.7,14.7,4.7,42,23.3,60.6
		c17.1,17.1,41.6,21.8,56.5,23.1v38.2C260,260.7,230.9,272.8,206.3,293L206.3,293z"/>
	<path class="st0" d="M472.4,347.1c-12-14.8-32.7-18.6-49.1-9.1l-82,47.4c-9.9,24.9-34.3,42.6-62.7,42.6H220c-8.3,0-15-6.7-15-15
		s6.7-15,15-15h58.5c20.7,0,37.5-16.8,37.5-37.5S299.2,323,278.5,323H179c-25.4,0-49.2,9.9-67.2,27.8l-76.4,76.4
		c-3.4,3.4-4.9,8.1-4.2,12.8s3.6,8.8,7.8,11l110.5,59.2c2.2,1.2,4.7,1.8,7.1,1.8c3.9,0,7.7-1.5,10.6-4.4l27.3-27.3
		c4.7-4.7,11-7.3,17.7-7.3h111.3c13.1,0,26.1-3.5,37.5-10l100.8-58.2c9.8-5.6,16.6-15.2,18.6-26.4
		C482.4,367.3,479.5,355.9,472.4,347.1L472.4,347.1z"/>
</g>
</svg>
