<svg xmlns="http://www.w3.org/2000/svg" viewBox="0 0 72.17 74.31"><defs><style>.cls-1{fill:#f5b60e;}</style></defs><title>B INVEST</title><g id="Layer_2" data-name="Layer 2"><g id="Layer_1-2" data-name="Layer 1"><g id="Layer_1-2-2" data-name="Layer 1-2"><path class="cls-1" d="M48.68,56.85a4.6,4.6,0,0,1-2.86-1A5,5,0,0,1,44,51.84v-40A7.75,7.75,0,0,1,49.6,4.5L65.87.22A5.38,5.38,0,0,1,68.65.15a4.7,4.7,0,0,1,3.46,4.18c0,.44.06.89.06,1.34q0,9.69,0,19.38v19.7a7.91,7.91,0,0,1-2.48,5.83,8.23,8.23,0,0,1-3.88,2c-3,.77-6,1.56-8.94,2.35l-6.72,1.76A5.84,5.84,0,0,1,48.68,56.85ZM67.45,2.5a3.4,3.4,0,0,0-.94.14L50.23,6.92a5.26,5.26,0,0,0-3.75,4.88v40a2.53,2.53,0,0,0,.87,2.08,2.45,2.45,0,0,0,2.17.31l6.71-1.76c3-.79,6-1.58,9-2.35a5.89,5.89,0,0,0,2.75-1.33,5.4,5.4,0,0,0,1.73-4V25.05q0-9.69,0-19.38c0-.38,0-.76,0-1.14a2.21,2.21,0,0,0-1.61-2A2.47,2.47,0,0,0,67.45,2.5Z"/><path class="cls-1" d="M4.71,56.92A4.6,4.6,0,0,1,1.91,56,4.89,4.89,0,0,1,0,52.15c0-.94,0-1.88,0-2.82V26.15Q0,19.09,0,12A8,8,0,0,1,5.8,4.51c3.52-.88,7.1-1.83,10.56-2.74Q19.2,1,22,.27A4.85,4.85,0,0,1,26.35,1a5,5,0,0,1,1.84,4V18.49a1.67,1.67,0,0,1-1.36,1.76c-1.11.28-2.23.58-3.35.88l-.67.18a5.26,5.26,0,0,0-3.83,5v24.3c0,.46,0,.93,0,1.39a1.61,1.61,0,0,1-1.26,1.67L12.36,55.1,6.11,56.74A5.72,5.72,0,0,1,4.71,56.92ZM23.48,2.57a3.5,3.5,0,0,0-.82.11L17,4.18c-3.47.92-7,1.88-10.6,2.76A5.54,5.54,0,0,0,2.5,12q0,7.07,0,14.13V49.34c0,.91,0,1.82,0,2.73A2.44,2.44,0,0,0,3.41,54a2.41,2.41,0,0,0,2.08.3c2.08-.53,4.15-1.08,6.23-1.63l4.76-1.25V26.33a7.76,7.76,0,0,1,5.68-7.43l.67-.19L25.69,18V5.05a2.5,2.5,0,0,0-.87-2A2.15,2.15,0,0,0,23.48,2.57Zm-6.39,48.7Z"/><path class="cls-1" d="M39.38,20.49,26.07,24a5.69,5.69,0,0,0-4.24,5.74c.11,4.24,0,40.94,0,40.94s.51,4.2,4.43,3.2,17-4.43,17-4.43a6.67,6.67,0,0,0,4.42-6.38c0-3.37-.05-3-.05-3s-3.17.31-5.15-1.2c-2.19-1.66-2.14-2.7-2.19-5.66,0-2.65.07-26.91.09-32A.72.72,0,0,0,39.38,20.49Z"/><path class="cls-1" d="M25.06,74.31a3.18,3.18,0,0,1-1.83-.54,4.64,4.64,0,0,1-1.7-3c0-.39.16-36.78,0-41a6,6,0,0,1,4.43-6l13.31-3.54a1,1,0,0,1,.84.17,1,1,0,0,1,.38.78c0,3-.13,29.25-.09,32v.25c0,2.75,0,3.68,2.08,5.22a8,8,0,0,0,4.8,1.17v0l.23,0c.28,0,.29,0,.26,3.28a7,7,0,0,1-4.6,6.62c-.14,0-13.1,3.44-17,4.43A4.86,4.86,0,0,1,25.06,74.31Zm-3-3.59a4.21,4.21,0,0,0,1.49,2.64,3.12,3.12,0,0,0,2.62.3c3.88-1,16.83-4.38,17-4.42a6.36,6.36,0,0,0,4.24-6.14c0-1.75,0-2.46,0-2.76a8.3,8.3,0,0,1-5.09-1.27C40,57.38,40,56.23,40,53.46v-.25c0-2.77.08-29,.09-32a.49.49,0,0,0-.18-.38.48.48,0,0,0-.42-.08L26.13,24.27a5.39,5.39,0,0,0-4.05,5.5c.11,4.19,0,40.58,0,41Z"/></g></g></g></svg>