<?xml version="1.0" encoding="utf-8"?>
<!-- Generator: Adobe Illustrator 23.0.0, SVG Export Plug-In . SVG Version: 6.00 Build 0)  -->
<svg version="1.1" id="Capa_1" xmlns="http://www.w3.org/2000/svg" xmlns:xlink="http://www.w3.org/1999/xlink" x="0px" y="0px"
	 viewBox="0 0 512 512" style="enable-background:new 0 0 512 512;" xml:space="preserve">
<style type="text/css">
	.st0{fill:#F5B60E;}
</style>
<g>
	<path class="st0" d="M255,182.7c-41.1,0-74.6,33.5-74.6,74.6s33.5,74.6,74.6,74.6s74.6-33.5,74.6-74.6S296.1,182.7,255,182.7
		L255,182.7z M284.8,272.2h-14.9v14.9c0,8.2-6.7,14.9-14.9,14.9c-8.2,0-14.9-6.7-14.9-14.9v-14.9h-14.9c-8.2,0-14.9-6.7-14.9-14.9
		c0-8.2,6.7-14.9,14.9-14.9h14.9v-14.9c0-8.2,6.7-14.9,14.9-14.9c8.2,0,14.9,6.7,14.9,14.9v14.9h14.9c8.2,0,14.9,6.7,14.9,14.9
		S293.1,272.2,284.8,272.2z"/>
	<path class="st0" d="M434.1,63.3c-55.6,0-109.5-17.3-155.8-48.2l-15-10c-5-3.4-11.5-3.4-16.6,0l-15,10
		C185.4,46,131.6,63.3,75.9,63.3C67.7,63.3,61,70,61,78.2v169.4c0,119.3,76.1,225.9,189.3,263.6c1.5,0.5,3.1,0.8,4.7,0.8
		s3.2-0.3,4.7-0.8C372.9,473.5,449,367,449,247.6V78.2C449,70,442.3,63.3,434.1,63.3L434.1,63.3z M255,361.8
		c-57.6,0-104.5-46.9-104.5-104.5S197.4,152.9,255,152.9s104.5,46.9,104.5,104.5S312.6,361.8,255,361.8z"/>
</g>
</svg>
