<svg width="1920" height="971" viewBox="0 0 1920 971" fill="none" xmlns="http://www.w3.org/2000/svg">
<g clip-path="url(#clip0)">
<path d="M1920 0H0V971H1920V0Z" fill="#1C1C1A"/>
<g filter="url(#filter0_f)">
<path d="M1351.5 774.614C1529.61 774.614 1674 630.226 1674 452.114C1674 274.002 1529.61 129.614 1351.5 129.614C1173.39 129.614 1029 274.002 1029 452.114C1029 630.226 1173.39 774.614 1351.5 774.614Z" fill="#F3D798" fill-opacity="0.4"/>
</g>
<path d="M1579.09 803.911C1579.09 803.911 1578.49 804.354 1577.35 805.135C1576.2 805.917 1574.58 807.193 1572.37 808.548C1570.18 809.954 1567.52 811.648 1564.48 813.602C1561.43 815.555 1558.02 817.796 1554.11 819.958C1538.84 829.18 1517.48 839.835 1495.21 848.145C1472.96 856.586 1449.83 862.447 1432.29 865.729C1427.89 866.511 1423.88 867.24 1420.31 867.866C1416.74 868.439 1413.59 868.751 1411.01 869.116C1405.85 869.767 1402.91 870.132 1402.91 870.132" stroke="#FFAD00" stroke-opacity="0.3" stroke-width="0.5175" stroke-miterlimit="10"/>
<path d="M1250.67 852.495C1250.67 852.495 1249.36 852.183 1246.99 851.349C1244.62 850.542 1241.16 849.369 1236.73 847.884C1232.28 846.478 1227.01 844.342 1220.97 841.971C1214.85 839.731 1208.23 836.578 1200.91 833.296C1186.5 826.34 1169.86 817.744 1153.26 806.516C1136.59 795.444 1119.71 782.288 1104.08 767.726C1072.51 738.836 1047.37 703.693 1031.84 675.74C1029.78 672.302 1028.04 668.889 1026.4 665.633C1024.73 662.376 1023.17 659.302 1021.68 656.411C1018.89 650.523 1016.63 645.339 1014.67 641.093C1012.72 636.846 1011.55 633.355 1010.56 631.063C1009.64 628.744 1009.15 627.494 1009.15 627.494" stroke="#FFAD00" stroke-opacity="0.3" stroke-width="0.5175" stroke-miterlimit="10"/>
<path d="M1447.9 836.865C1447.9 836.865 1444.95 837.542 1439.8 838.741C1437.22 839.288 1434.12 840.173 1430.47 840.773C1426.85 841.424 1422.76 842.153 1418.3 842.935C1400.41 845.827 1376.26 848.015 1352.06 847.337C1327.86 846.816 1303.86 843.378 1286.15 839.574C1281.75 838.558 1277.68 837.62 1274.09 836.787C1270.49 835.979 1267.44 834.963 1264.89 834.286C1259.81 832.853 1256.89 832.02 1256.89 832.02" stroke="#FFAD00" stroke-opacity="0.3" stroke-width="0.5175" stroke-miterlimit="10"/>
<path d="M1666.88 673.865C1666.88 673.865 1666.34 674.802 1665.29 676.574C1664.17 678.293 1662.56 680.846 1660.5 684.051C1658.44 687.281 1655.97 691.241 1652.82 695.513C1649.71 699.837 1646.33 704.839 1642.16 709.919C1640.13 712.498 1638.02 715.181 1635.83 717.969C1633.51 720.652 1631.11 723.413 1628.64 726.253C1627.42 727.686 1626.16 729.119 1624.89 730.577C1623.56 731.984 1622.21 733.391 1620.85 734.824C1618.12 737.689 1615.33 740.607 1612.49 743.551C1600.79 755.065 1587.56 766.58 1573.59 777.156C1559.5 787.577 1544.65 796.877 1530.27 804.822C1522.93 808.496 1516 812.377 1509.07 815.295C1505.63 816.832 1502.32 818.369 1499.06 819.776C1495.78 821.078 1492.58 822.329 1489.53 823.527C1483.46 826.054 1477.7 827.825 1472.67 829.571C1467.65 831.368 1463.16 832.593 1459.47 833.635C1455.79 834.677 1452.87 835.51 1450.92 836.057C1448.94 836.604 1447.87 836.813 1447.87 836.813" stroke="#FFAD00" stroke-opacity="0.3" stroke-width="0.5175" stroke-miterlimit="10"/>
<path d="M1714.19 690.277C1714.19 690.277 1711.69 694.601 1707.34 702.13C1705 705.803 1702.13 710.258 1698.85 715.364C1695.59 720.496 1691.45 725.966 1687.15 732.062C1685.01 735.136 1682.49 738.106 1680.04 741.31C1677.51 744.462 1675.04 747.797 1672.25 751.053C1666.65 757.514 1660.84 764.443 1654.27 771.086C1647.97 777.964 1640.83 784.503 1633.75 791.276C1626.35 797.684 1618.95 804.38 1611 810.397C1603.29 816.702 1595.03 822.302 1587.01 827.956C1578.75 833.244 1570.7 838.584 1562.52 843.091C1554.5 847.911 1546.37 851.844 1538.76 855.778C1534.96 857.732 1531.11 859.321 1527.43 861.014C1523.73 862.629 1520.24 864.375 1516.75 865.703C1509.77 868.413 1503.47 871.096 1497.71 873.05C1491.95 875.003 1486.92 876.697 1482.81 878.103C1478.64 879.406 1475.33 880.266 1473.09 880.943C1470.85 881.568 1469.65 881.933 1469.65 881.933" stroke="#FFAD00" stroke-opacity="0.3" stroke-width="0.5175" stroke-miterlimit="10"/>
<path d="M1282.66 823.553C1282.66 823.553 1281.64 823.318 1279.71 822.876C1278.75 822.667 1277.58 822.381 1276.2 822.068C1274.82 821.677 1273.25 821.234 1271.48 820.739C1267.97 819.723 1263.64 818.577 1258.77 817.092C1253.95 815.425 1248.45 813.68 1242.54 811.517C1218.99 802.764 1188.54 788.02 1161.47 768.065C1134.17 748.474 1110.36 724.377 1094.83 704.579C1090.95 699.629 1087.3 695.148 1084.44 690.902C1081.52 686.708 1078.76 683.191 1076.88 680.039C1072.92 673.865 1070.66 670.322 1070.66 670.322" stroke="#FFAD00" stroke-opacity="0.3" stroke-width="0.5175" stroke-miterlimit="10"/>
<path d="M1440.71 888.915C1440.71 888.915 1437.32 889.514 1431.41 890.582C1428.44 891.077 1424.87 891.832 1420.7 892.379C1416.53 892.9 1411.84 893.5 1406.74 894.151C1386.24 896.443 1358.73 897.642 1331.29 895.558C1303.86 893.656 1276.72 888.42 1256.76 883.105C1251.79 881.698 1247.25 880.396 1243.22 879.25C1239.18 878.13 1235.77 876.801 1232.87 875.889C1227.17 873.961 1223.91 872.841 1223.91 872.841" stroke="#FFAD00" stroke-opacity="0.3" stroke-width="0.5175" stroke-miterlimit="10"/>
<path d="M1494.66 794.506C1494.66 794.506 1484.45 799.247 1468.53 804.718C1452.64 810.267 1430.86 816.076 1408.59 819.176C1386.34 822.381 1363.73 823.136 1346.87 822.25C1342.65 822.224 1338.8 821.703 1335.38 821.521C1331.97 821.234 1328.98 821.078 1326.53 820.818C1321.66 820.192 1318.87 819.828 1318.87 819.828" stroke="#FFAD00" stroke-opacity="0.3" stroke-width="0.5175" stroke-miterlimit="10"/>
<path d="M1045.15 780.934C1045.15 780.934 1057.32 782.158 1068.99 782.809C1080.95 783.304 1092.43 783.174 1092.43 783.174C1092.43 783.174 1092.77 783.487 1093.37 784.06C1093.97 784.659 1094.88 785.493 1096.11 786.535C1098.5 788.619 1101.94 791.589 1106.06 795.158C1108.09 796.981 1110.38 798.831 1112.86 800.732C1115.31 802.66 1117.89 804.692 1120.57 806.802C1123.2 808.938 1126.07 810.996 1128.98 813.054C1131.9 815.113 1134.85 817.223 1137.82 819.333C1143.81 823.397 1150.01 827.226 1155.71 830.899C1161.6 834.286 1167.12 837.464 1171.84 840.173C1181.53 845.149 1187.99 848.458 1187.99 848.458C1187.99 848.458 1188.22 849.057 1188.61 850.125C1189.03 851.167 1189.63 852.652 1190.33 854.423C1191.77 857.992 1193.77 862.786 1195.88 867.605C1196.95 870.028 1198.02 872.45 1199.03 874.717C1200.1 876.931 1201.12 879.015 1201.98 880.787C1203.78 884.356 1204.95 886.726 1204.95 886.726C1204.95 886.726 1207.11 887.586 1210.91 889.071C1214.69 890.66 1220.24 892.458 1226.86 894.698C1240.06 899.309 1258.14 904.102 1276.38 908.01C1294.69 911.501 1313.19 914.158 1327.13 915.044C1334.08 915.565 1339.89 916.086 1343.96 916.086C1348.02 916.19 1350.34 916.242 1350.34 916.242" stroke="#FFAD00" stroke-opacity="0.3" stroke-width="0.5175" stroke-miterlimit="10"/>
<path d="M1367.77 797.268C1367.77 797.268 1366.54 797.294 1364.43 797.346C1363.36 797.372 1362.09 797.45 1360.6 797.424C1359.12 797.372 1357.45 797.346 1355.63 797.294C1351.98 797.137 1347.71 797.242 1343.17 796.877C1338.64 796.486 1333.8 796.199 1328.95 795.757C1324.13 795.157 1319.34 794.532 1314.83 793.959C1310.35 793.152 1306.18 792.422 1302.61 791.771C1299.02 791.224 1296.1 790.39 1294.02 789.947C1291.96 789.478 1290.76 789.192 1290.76 789.192C1290.76 789.192 1286.1 779.866 1282.37 770.175C1280.47 765.355 1278.67 760.718 1277.45 757.097C1276.28 753.45 1275.49 751.027 1275.49 751.027C1275.49 751.027 1274.5 750.689 1272.68 750.063C1270.86 749.386 1268.1 748.683 1264.76 747.25C1258.01 744.619 1248.38 740.841 1237.33 735.084C1215 724.169 1187.36 704.943 1164.33 680.898C1152.79 668.915 1142.4 655.863 1133.75 642.942C1124.97 630.073 1118.33 617.1 1113.07 605.872C1111.79 603.032 1110.57 600.323 1109.39 597.744C1108.35 595.113 1107.39 592.612 1106.48 590.267C1104.5 585.63 1103.25 581.41 1102.05 577.971C1101.45 576.252 1100.93 574.741 1100.48 573.412C1100.04 572.084 1099.78 570.912 1099.49 569.974C1098.97 568.098 1098.69 567.108 1098.69 567.108C1098.69 567.108 1097.25 566.561 1094.73 565.649C1092.23 564.685 1088.45 563.331 1084.25 561.455C1075.79 557.782 1064.14 552.363 1053.07 545.851C1050.26 544.235 1047.44 542.594 1044.63 540.901C1041.92 539.208 1039.29 537.488 1036.74 535.795C1031.63 532.382 1026.76 529.048 1022.67 526.052C1014.75 520.06 1009.41 515.658 1009.41 515.658" stroke="#FFAD00" stroke-opacity="0.3" stroke-width="0.5175" stroke-miterlimit="10"/>
<path d="M1458.29 773.066C1458.29 773.066 1460.25 772.415 1463.63 771.269C1466.97 769.94 1471.76 768.065 1477.47 765.772C1488.77 760.849 1503.57 753.606 1517.56 744.931C1531.68 736.413 1544.68 726.227 1554.08 718.229C1556.43 716.197 1558.56 714.348 1560.46 712.707C1562.37 711.065 1563.88 709.476 1565.21 708.252C1567.81 705.777 1569.32 704.344 1569.32 704.344C1569.32 704.344 1571.8 704.709 1575.52 705.1C1579.19 705.438 1584.14 705.855 1589.2 706.168C1594.25 706.506 1599.41 706.715 1603.16 706.715C1606.99 706.715 1609.54 706.741 1609.54 706.741C1609.54 706.741 1610.43 705.725 1611.97 703.953C1612.75 703.068 1613.69 701.973 1614.75 700.749C1615.77 699.447 1616.92 698.014 1618.14 696.425C1623.22 690.146 1629.6 681.471 1635.54 672.51C1637 670.244 1638.43 667.977 1639.87 665.763C1641.33 663.548 1642.71 661.36 1643.93 659.146C1646.41 654.743 1648.85 650.731 1650.76 647.162C1654.43 639.972 1656.88 635.205 1656.88 635.205C1656.88 635.205 1657.84 634.971 1659.43 634.502C1661.02 634.033 1663.31 633.329 1666.05 632.522C1668.81 631.662 1672.04 630.646 1675.53 629.474C1679.02 628.328 1682.8 627.025 1686.39 625.592C1693.66 622.779 1701.14 619.705 1706.66 617.204C1712.11 614.599 1715.73 612.853 1715.73 612.853C1715.73 612.853 1716.35 611.03 1717.42 607.826C1717.94 606.21 1718.67 604.309 1719.32 602.042C1719.97 599.776 1720.7 597.223 1721.48 594.435C1722.27 591.648 1723.13 588.626 1724.04 585.448C1724.79 582.218 1725.57 578.805 1726.38 575.288C1728.15 568.28 1729.43 560.647 1730.78 553.067C1731.54 549.289 1731.98 545.46 1732.45 541.682C1732.92 537.905 1733.39 534.206 1733.86 530.611C1734.43 523.395 1734.95 516.674 1735.4 510.916C1735.68 499.35 1735.89 491.639 1735.89 491.639" stroke="#FFAD00" stroke-opacity="0.3" stroke-width="0.5175" stroke-miterlimit="10"/>
<path d="M1777.21 502.606C1777.21 502.606 1777.16 504.378 1777.08 507.504C1777.03 509.067 1776.97 510.969 1776.92 513.131C1776.77 515.293 1776.58 517.742 1776.37 520.425C1775.72 531.132 1774.19 545.356 1771.87 559.475C1771.24 562.992 1770.62 566.509 1769.99 570C1769.68 571.745 1769.37 573.465 1769.05 575.158C1768.66 576.851 1768.3 578.518 1767.93 580.134C1766.4 586.672 1765.12 592.794 1763.69 597.978C1760.74 608.321 1758.79 615.198 1758.79 615.198C1758.79 615.198 1763.56 625.775 1768.04 637.003C1770.36 642.63 1772.18 648.231 1773.72 652.581C1775.18 656.932 1776.14 659.823 1776.14 659.823C1776.14 659.823 1775.8 660.657 1775.2 662.194C1774.58 663.757 1773.72 666.049 1772.39 668.863C1771.11 671.702 1769.55 675.167 1767.75 679.127C1766.84 681.107 1765.9 683.217 1764.89 685.431C1763.79 687.594 1762.62 689.886 1761.42 692.283C1758.95 697.024 1756.45 702.26 1753.42 707.575C1750.35 712.889 1747.15 718.464 1743.78 724.273C1740.19 729.9 1736.46 735.709 1732.66 741.623C1728.65 747.38 1724.51 753.164 1720.36 758.973C1703.41 781.898 1683.92 802.764 1668.29 817.327C1652.74 831.967 1641.48 840.721 1641.48 840.721" stroke="#FFAD00" stroke-opacity="0.3" stroke-width="0.5175" stroke-miterlimit="10"/>
<path d="M1673.55 509.119C1673.55 509.119 1673.21 513.521 1672.72 520.138C1672.56 523.447 1671.96 527.276 1671.47 531.392C1670.95 535.508 1670.48 539.911 1669.59 544.235C1668.76 548.56 1668.16 552.962 1667.19 556.974C1666.26 561.012 1665.4 564.764 1664.64 567.994C1663.94 571.224 1663.03 573.829 1662.53 575.705C1662.01 577.555 1661.7 578.623 1661.7 578.623C1661.7 578.623 1658.1 580.212 1652.81 582.4C1647.32 584.536 1640.05 587.167 1632.94 589.512C1625.72 591.83 1618.35 593.732 1613.04 595.061C1610.35 595.712 1608.16 596.233 1606.52 596.572C1604.93 596.884 1604.02 597.067 1604.02 597.067C1604.02 597.067 1603.47 598.291 1602.48 600.453C1601.44 602.589 1600.27 605.768 1598.32 609.311C1596.39 612.88 1594.49 617.23 1591.8 621.554C1590.55 623.769 1589.25 626.035 1587.92 628.354C1586.54 630.62 1585 632.861 1583.57 635.153C1580.78 639.816 1577.45 644.089 1574.56 648.283C1571.59 652.399 1568.49 656.02 1566.07 659.276C1560.75 665.45 1557.23 669.566 1557.23 669.566" stroke="#FFAD00" stroke-opacity="0.3" stroke-width="0.5175" stroke-miterlimit="10"/>
<path d="M1040.51 724.897C1040.51 724.897 1037.91 721.224 1034 715.727C1031.97 713.018 1029.96 709.631 1027.65 706.088C1025.41 702.493 1022.83 698.794 1020.64 694.887C1016.13 687.097 1011.6 679.308 1008.65 673.212C1007.12 670.216 1005.84 667.689 1004.93 665.944C1004.02 664.199 1003.55 663.183 1003.55 663.183C1003.55 663.183 999.355 661.541 992.972 658.884C986.564 656.227 977.915 652.476 969.604 648.177C965.384 646.067 961.138 643.853 957.152 641.743C953.14 639.633 949.623 637.496 946.471 635.673C940.245 632 936.051 629.369 936.051 629.369C936.051 629.369 935.322 627.311 934.175 623.637C933.133 619.964 931.622 614.676 929.825 608.372C929.382 606.782 928.913 605.141 928.444 603.448C928.027 601.729 927.61 599.931 927.194 598.108C926.36 594.434 925.448 590.579 924.536 586.567C923.547 582.581 922.817 578.413 922.062 574.167C921.306 569.92 920.551 565.622 919.769 561.298C918.519 552.649 917.425 543.948 916.513 535.82C915.888 527.666 915.236 520.033 914.872 513.494C914.533 500.417 914.325 491.69 914.325 491.69" stroke="#FFAD00" stroke-opacity="0.3" stroke-width="0.5175" stroke-miterlimit="10"/>
<path d="M1577.22 865.781C1577.22 865.781 1575.16 866.954 1571.56 869.038C1567.99 871.174 1562.7 873.857 1556.37 877.114C1543.77 883.757 1526.29 891.285 1508.49 897.928C1499.48 900.924 1490.57 904.233 1481.95 906.499C1477.65 907.697 1473.51 908.87 1469.6 909.99C1465.61 910.928 1461.86 911.813 1458.4 912.621C1454.93 913.429 1451.73 914.132 1448.91 914.783C1446.07 915.356 1443.6 915.773 1441.54 916.164C1437.45 916.893 1435.11 917.31 1435.11 917.31C1435.11 917.31 1432.87 920.019 1429.51 924.109C1426.09 928.173 1421.4 933.279 1416.51 938.568C1411.64 943.83 1406.56 949.04 1402.65 952.713C1398.69 956.465 1396.06 958.966 1396.06 958.966C1396.06 958.966 1393.82 959.122 1389.91 959.434C1386 959.799 1380.4 959.929 1373.68 960.086C1370.32 960.164 1366.67 960.242 1362.84 960.346C1358.99 960.398 1354.92 960.216 1350.73 960.138C1346.53 960.034 1342.18 959.903 1337.78 959.773C1333.38 959.513 1328.9 959.148 1324.42 958.809C1319.94 958.418 1315.46 958.21 1311.08 957.663C1306.68 957.116 1302.38 956.569 1298.18 956.048C1289.8 955.11 1282.08 953.573 1275.44 952.401C1272.13 951.801 1269.09 951.228 1266.38 950.733C1263.69 950.134 1261.37 949.587 1259.45 949.17C1255.62 948.285 1253.4 947.79 1253.4 947.79" stroke="#FFAD00" stroke-opacity="0.3" stroke-width="0.5175" stroke-miterlimit="10"/>
<path d="M1143.26 179.445C1143.26 179.445 1143.86 179.002 1145 178.22C1146.15 177.439 1147.77 176.162 1149.98 174.808C1152.17 173.401 1154.83 171.708 1157.87 169.754C1160.92 167.8 1164.33 165.56 1168.24 163.397C1183.51 154.175 1204.87 143.521 1227.14 135.21C1249.39 126.77 1272.52 120.908 1290.06 117.626C1294.46 116.844 1298.47 116.115 1302.04 115.49C1305.61 114.917 1308.76 114.604 1311.34 114.239C1316.5 113.588 1319.44 113.223 1319.44 113.223" stroke="#FFAD00" stroke-opacity="0.3" stroke-width="0.5175" stroke-miterlimit="10"/>
<path d="M1471.66 130.86C1471.66 130.86 1472.96 131.172 1475.33 132.006C1477.7 132.814 1481.19 133.986 1485.59 135.471C1490.05 136.878 1495.31 139.014 1501.35 141.384C1507.48 143.625 1514.09 146.777 1521.41 150.059C1535.82 157.015 1552.47 165.612 1569.06 176.84C1585.73 187.911 1602.61 201.067 1618.24 215.629C1649.82 244.52 1674.96 279.662 1690.48 307.615C1692.54 311.054 1694.29 314.466 1695.93 317.723C1697.6 320.979 1699.16 324.053 1700.64 326.945C1703.43 332.832 1705.7 338.016 1707.65 342.263C1709.61 346.509 1710.78 350 1711.77 352.292C1712.68 354.611 1713.17 355.861 1713.17 355.861" stroke="#FFAD00" stroke-opacity="0.3" stroke-width="0.5175" stroke-miterlimit="10"/>
<path d="M1274.43 146.49C1274.43 146.49 1277.37 145.813 1282.53 144.615C1285.11 144.068 1288.21 143.182 1291.85 142.583C1295.47 141.932 1299.56 141.202 1304.02 140.421C1321.92 137.529 1346.07 135.341 1370.27 136.018C1394.47 136.539 1418.46 139.978 1436.18 143.781C1440.58 144.797 1444.64 145.735 1448.24 146.569C1451.83 147.376 1454.88 148.392 1457.43 149.069C1462.51 150.502 1465.43 151.336 1465.43 151.336" stroke="#FFAD00" stroke-opacity="0.3" stroke-width="0.5175" stroke-miterlimit="10"/>
<path d="M1055.44 309.491C1055.44 309.491 1055.99 308.553 1057.03 306.781C1058.15 305.062 1059.77 302.509 1061.82 299.305C1063.88 296.075 1066.36 292.141 1069.51 287.842C1072.61 283.518 1076 278.516 1080.16 273.436C1082.2 270.857 1084.31 268.174 1086.49 265.387C1088.81 262.703 1091.21 259.942 1093.68 257.102C1094.91 255.67 1096.16 254.237 1097.44 252.778C1098.76 251.371 1100.12 249.965 1101.47 248.532C1104.21 245.666 1107 242.748 1109.84 239.805C1121.53 228.29 1134.77 216.776 1148.73 206.199C1162.82 195.779 1177.67 186.478 1192.05 178.533C1199.4 174.86 1206.33 170.978 1213.26 168.061C1216.7 166.524 1220.01 164.96 1223.26 163.58C1226.54 162.277 1229.75 161.027 1232.8 159.828C1238.87 157.302 1244.62 155.53 1249.65 153.785C1254.68 151.987 1259.16 150.763 1262.86 149.721C1266.53 148.679 1269.42 147.845 1271.4 147.298C1273.38 146.751 1274.45 146.542 1274.45 146.542" stroke="#FFAD00" stroke-opacity="0.3" stroke-width="0.5175" stroke-miterlimit="10"/>
<path d="M1008.13 293.079C1008.13 293.079 1010.63 288.754 1014.98 281.226C1017.33 277.552 1020.19 273.098 1023.48 267.992C1026.73 262.86 1030.88 257.389 1035.17 251.293C1037.31 248.219 1039.84 245.249 1042.29 242.045C1044.81 238.893 1047.29 235.558 1050.08 232.302C1055.68 225.841 1061.49 218.912 1068.05 212.269C1074.35 205.391 1081.49 198.853 1088.58 192.079C1095.98 185.671 1103.38 178.976 1111.32 172.958C1119.03 166.654 1127.29 161.053 1135.31 155.4C1143.57 150.111 1151.62 144.771 1159.8 140.264C1167.83 135.445 1175.95 131.511 1183.56 127.577C1187.36 125.624 1191.22 124.035 1194.89 122.341C1198.59 120.726 1202.08 118.981 1205.57 117.652C1212.55 114.943 1218.86 112.26 1224.62 110.306C1230.37 108.352 1235.4 106.659 1239.52 105.252C1243.69 103.949 1246.99 103.09 1249.23 102.412C1251.47 101.787 1252.67 101.422 1252.67 101.422" stroke="#FFAD00" stroke-opacity="0.3" stroke-width="0.5175" stroke-miterlimit="10"/>
<path d="M1439.67 159.802C1439.67 159.802 1440.68 160.037 1442.61 160.48C1443.57 160.688 1444.75 160.975 1446.13 161.287C1447.51 161.678 1449.07 162.121 1450.84 162.616C1454.36 163.632 1458.68 164.778 1463.55 166.263C1468.37 167.93 1473.87 169.676 1479.78 171.838C1503.33 180.591 1533.79 195.336 1560.85 215.291C1588.16 234.881 1611.97 258.978 1627.49 278.777C1631.37 283.726 1635.02 288.207 1637.89 292.453C1640.81 296.648 1643.57 300.164 1645.44 303.317C1649.4 309.491 1651.67 313.034 1651.67 313.034" stroke="#FFAD00" stroke-opacity="0.3" stroke-width="0.5175" stroke-miterlimit="10"/>
<path d="M1281.62 94.4406C1281.62 94.4406 1285 93.8414 1290.92 92.7734C1293.89 92.2784 1297.45 91.5229 1301.62 90.9759C1305.79 90.4548 1310.48 89.8557 1315.59 89.2044C1336.09 86.9119 1363.6 85.7136 1391.03 87.7976C1418.46 89.6994 1445.61 94.9356 1465.56 100.25C1470.54 101.657 1475.07 102.959 1479.11 104.105C1483.15 105.226 1486.56 106.554 1489.45 107.466C1495.15 109.394 1498.41 110.514 1498.41 110.514" stroke="#FFAD00" stroke-opacity="0.3" stroke-width="0.5175" stroke-miterlimit="10"/>
<path d="M1227.66 188.849C1227.66 188.849 1237.88 184.108 1253.79 178.637C1269.68 173.088 1291.46 167.279 1313.74 164.179C1335.98 160.975 1358.6 160.219 1375.45 161.105C1379.67 161.131 1383.53 161.652 1386.94 161.834C1390.35 162.121 1393.35 162.277 1395.8 162.538C1400.67 163.163 1403.46 163.528 1403.46 163.528" stroke="#FFAD00" stroke-opacity="0.3" stroke-width="0.5175" stroke-miterlimit="10"/>
<path d="M1677.2 202.422C1677.2 202.422 1665.03 201.197 1653.36 200.546C1641.4 200.051 1629.92 200.181 1629.92 200.181C1629.92 200.181 1629.58 199.869 1628.98 199.295C1628.38 198.696 1627.47 197.863 1626.24 196.821C1623.85 194.737 1620.41 191.767 1616.29 188.198C1614.26 186.374 1611.97 184.525 1609.49 182.623C1607.04 180.695 1604.46 178.663 1601.78 176.553C1599.15 174.417 1596.28 172.359 1593.37 170.301C1590.45 168.243 1587.51 166.133 1584.54 164.023C1578.54 159.959 1572.34 156.129 1566.64 152.456C1560.75 149.069 1555.23 145.891 1550.51 143.182C1540.82 138.206 1534.36 134.898 1534.36 134.898C1534.36 134.898 1534.13 134.298 1533.74 133.23C1533.32 132.188 1532.72 130.703 1532.02 128.932C1530.58 125.363 1528.58 120.57 1526.47 115.75C1525.4 113.328 1524.33 110.905 1523.32 108.638C1522.25 106.424 1521.23 104.34 1520.37 102.569C1518.57 98.9996 1517.4 96.6289 1517.4 96.6289C1517.4 96.6289 1515.24 95.7692 1511.44 94.2843C1507.69 92.6952 1502.11 90.8977 1495.49 88.6574C1482.29 84.0463 1464.21 79.253 1445.97 75.3454C1427.66 71.8546 1409.16 69.1973 1395.22 68.3116C1388.27 67.7906 1382.46 67.2696 1378.39 67.2696C1374.33 67.1654 1372.01 67.1133 1372.01 67.1133" stroke="#FFAD00" stroke-opacity="0.3" stroke-width="0.5175" stroke-miterlimit="10"/>
<path d="M1354.56 186.088C1354.56 186.088 1355.78 186.062 1357.89 186.01C1358.96 185.984 1360.24 185.905 1361.72 185.932C1363.21 185.984 1364.87 186.01 1366.7 186.062C1370.34 186.218 1374.62 186.114 1379.15 186.479C1383.68 186.869 1388.53 187.156 1393.37 187.599C1398.19 188.198 1402.99 188.823 1407.49 189.396C1411.97 190.204 1416.14 190.933 1419.71 191.585C1423.31 192.132 1426.22 192.965 1428.31 193.408C1430.37 193.877 1431.56 194.164 1431.56 194.164C1431.56 194.164 1436.23 203.49 1439.95 213.181C1441.85 218 1443.65 222.637 1444.88 226.258C1446.05 229.905 1446.83 232.328 1446.83 232.328C1446.83 232.328 1447.82 232.667 1449.64 233.292C1451.47 233.969 1454.23 234.673 1457.56 236.106C1464.31 238.737 1473.95 242.514 1484.99 248.271C1507.32 259.187 1534.96 278.412 1557.99 302.457C1569.53 314.441 1579.92 327.492 1588.57 340.413C1597.35 353.282 1604 366.256 1609.26 377.484C1610.53 380.323 1611.76 383.032 1612.93 385.612C1613.97 388.243 1614.94 390.744 1615.85 393.088C1617.83 397.725 1619.08 401.945 1620.28 405.384C1620.88 407.104 1621.4 408.614 1621.84 409.943C1622.28 411.272 1622.54 412.444 1622.83 413.382C1623.35 415.257 1623.64 416.247 1623.64 416.247C1623.64 416.247 1625.07 416.794 1627.6 417.706C1630.1 418.67 1633.88 420.025 1638.07 421.9C1646.54 425.574 1658.18 430.992 1669.25 437.505C1672.07 439.12 1674.88 440.761 1677.69 442.455C1680.4 444.148 1683.03 445.867 1685.59 447.561C1690.69 450.973 1695.56 454.308 1699.65 457.304C1707.57 463.295 1712.91 467.698 1712.91 467.698" stroke="#FFAD00" stroke-opacity="0.3" stroke-width="0.5175" stroke-miterlimit="10"/>
<path d="M1264.06 210.289C1264.06 210.289 1262.1 210.94 1258.69 212.087C1255.36 213.415 1250.56 215.291 1244.86 217.583C1233.55 222.507 1218.75 229.749 1204.77 238.424C1190.65 246.943 1177.65 257.129 1168.24 265.126C1165.9 267.158 1163.76 269.008 1161.86 270.649C1159.96 272.29 1158.45 273.879 1157.12 275.104C1154.51 277.579 1153 279.011 1153 279.011C1153 279.011 1150.53 278.647 1146.8 278.256C1143.13 277.917 1138.18 277.5 1133.13 277.188C1128.07 276.849 1122.91 276.641 1119.16 276.641C1115.33 276.641 1112.78 276.615 1112.78 276.615C1112.78 276.615 1111.89 277.631 1110.36 279.402C1109.58 280.288 1108.64 281.382 1107.57 282.606C1106.55 283.909 1105.41 285.342 1104.18 286.931C1099.1 293.209 1092.72 301.884 1086.78 310.845C1085.32 313.112 1083.89 315.378 1082.46 317.593C1081 319.807 1079.62 321.995 1078.39 324.21C1075.92 328.612 1073.47 332.624 1071.57 336.193C1067.89 343.383 1065.45 348.15 1065.45 348.15C1065.45 348.15 1064.48 348.385 1062.89 348.854C1061.3 349.323 1059.01 350.026 1056.28 350.834C1053.51 351.693 1050.28 352.709 1046.79 353.882C1043.3 355.028 1039.52 356.33 1035.93 357.763C1028.66 360.577 1021.19 363.651 1015.66 366.151C1010.22 368.757 1006.6 370.502 1006.6 370.502C1006.6 370.502 1005.97 372.326 1004.9 375.53C1004.38 377.145 1003.65 379.047 1003 381.313C1002.35 383.58 1001.65 386.133 1000.84 388.92C1000.06 391.707 999.198 394.729 998.286 397.908C997.531 401.138 996.749 404.55 995.942 408.067C994.17 415.075 992.894 422.708 991.539 430.289C990.784 434.066 990.341 437.896 989.872 441.673C989.403 445.45 988.934 449.15 988.465 452.745C987.892 459.961 987.371 466.682 986.928 472.439C986.642 484.006 986.433 491.717 986.433 491.717" stroke="#FFAD00" stroke-opacity="0.3" stroke-width="0.5175" stroke-miterlimit="10"/>
<path d="M945.117 480.749C945.117 480.749 945.169 478.952 945.247 475.852C945.299 474.289 945.351 472.387 945.403 470.225C945.559 468.062 945.742 465.614 945.95 462.93C946.601 452.223 948.138 438 950.457 423.88C951.082 420.363 951.707 416.846 952.333 413.356C952.645 411.61 952.958 409.891 953.27 408.197C953.661 406.504 954.026 404.837 954.391 403.222C955.928 396.683 957.204 390.561 958.637 385.377C961.581 375.035 963.535 368.157 963.535 368.157C963.535 368.157 958.767 357.581 954.286 346.353C951.968 340.726 950.144 335.125 948.607 330.774C947.149 326.424 946.185 323.532 946.185 323.532C946.185 323.532 946.523 322.698 947.122 321.161C947.748 319.598 948.607 317.306 949.936 314.492C951.212 311.653 952.776 308.188 954.573 304.228C955.485 302.249 956.423 300.138 957.439 297.924C958.533 295.762 959.705 293.469 960.903 291.073C963.378 286.331 965.879 281.095 968.901 275.781C971.975 270.466 975.179 264.892 978.54 259.082C982.135 253.455 985.86 247.646 989.664 241.732C993.675 235.975 997.817 230.192 1001.96 224.382C1018.92 201.458 1038.4 180.591 1054.04 166.028C1069.59 151.388 1080.84 142.635 1080.84 142.635" stroke="#FFAD00" stroke-opacity="0.3" stroke-width="0.5175" stroke-miterlimit="10"/>
<path d="M1048.77 474.236C1048.77 474.236 1049.11 469.834 1049.61 463.217C1049.76 459.908 1050.36 456.079 1050.86 451.963C1051.38 447.847 1051.85 443.444 1052.73 439.12C1053.57 434.795 1054.17 430.393 1055.13 426.381C1056.07 422.343 1056.93 418.592 1057.68 415.361C1058.39 412.131 1059.3 409.526 1059.79 407.65C1060.31 405.801 1060.63 404.733 1060.63 404.733C1060.63 404.733 1064.22 403.144 1069.51 400.955C1075.01 398.819 1082.27 396.188 1089.39 393.843C1096.6 391.525 1103.97 389.623 1109.29 388.295C1111.97 387.643 1114.16 387.096 1115.8 386.784C1117.39 386.471 1118.3 386.289 1118.3 386.289C1118.3 386.289 1118.85 385.064 1119.84 382.902C1120.88 380.766 1122.05 377.588 1124.01 374.045C1125.94 370.476 1127.84 366.125 1130.52 361.801C1131.77 359.587 1133.07 357.32 1134.4 355.002C1135.78 352.735 1137.32 350.495 1138.75 348.202C1141.54 343.539 1144.87 339.267 1147.77 335.073C1150.74 330.957 1153.84 327.336 1156.26 324.079C1161.57 317.905 1165.09 313.789 1165.09 313.789" stroke="#FFAD00" stroke-opacity="0.3" stroke-width="0.5175" stroke-miterlimit="10"/>
<path d="M1681.81 258.457C1681.81 258.457 1684.41 262.13 1688.32 267.627C1690.35 270.336 1692.36 273.723 1694.68 277.266C1696.92 280.861 1699.5 284.56 1701.69 288.468C1706.19 296.257 1710.73 304.046 1713.67 310.142C1715.21 313.138 1716.48 315.665 1717.39 317.41C1718.31 319.156 1718.78 320.172 1718.78 320.172C1718.78 320.172 1722.97 321.813 1729.35 324.47C1735.76 327.127 1744.41 330.878 1752.72 335.177C1756.94 337.287 1761.19 339.501 1765.17 341.611C1769.18 343.722 1772.7 345.858 1775.85 347.707C1782.08 351.381 1786.27 354.012 1786.27 354.012C1786.27 354.012 1787 356.07 1788.15 359.743C1789.19 363.416 1790.7 368.704 1792.5 375.009C1792.94 376.598 1793.41 378.239 1793.88 379.932C1794.3 381.652 1794.71 383.449 1795.13 385.273C1795.96 388.946 1796.88 392.801 1797.79 396.813C1798.78 400.799 1799.51 404.967 1800.26 409.213C1801.02 413.46 1801.77 417.758 1802.56 422.083C1803.81 430.732 1804.9 439.433 1805.81 447.56C1806.44 455.714 1807.09 463.347 1807.45 469.886C1807.79 482.964 1808 491.691 1808 491.691" stroke="#FFAD00" stroke-opacity="0.3" stroke-width="0.5175" stroke-miterlimit="10"/>
<path d="M1145.14 117.574C1145.14 117.574 1147.19 116.402 1150.79 114.318C1154.36 112.181 1159.65 109.498 1165.98 106.242C1178.58 99.5988 1196.06 92.0701 1213.86 85.4271C1222.87 82.4313 1231.78 79.1228 1240.4 76.8564C1244.7 75.658 1248.84 74.4858 1252.75 73.3656C1256.74 72.4277 1260.49 71.542 1263.95 70.7344C1267.42 69.9269 1270.6 69.2235 1273.44 68.5722C1276.28 67.9991 1278.75 67.5823 1280.81 67.1915C1284.9 66.4621 1287.24 66.0453 1287.24 66.0453C1287.24 66.0453 1289.48 63.336 1292.84 59.246C1296.26 55.1821 1300.95 50.05 1305.84 44.7878C1310.71 39.5255 1315.79 34.3153 1319.7 30.6421C1323.66 26.8908 1326.29 24.3899 1326.29 24.3899C1326.29 24.3899 1328.53 24.2336 1332.44 23.921C1336.35 23.5563 1341.95 23.426 1348.67 23.2697C1352.03 23.1916 1355.68 23.1134 1359.51 23.0092C1363.36 22.9571 1367.43 23.1395 1371.62 23.2176C1375.82 23.3218 1380.17 23.4521 1384.57 23.5823C1388.97 23.8428 1393.45 24.2076 1397.93 24.5462C1402.41 24.937 1406.89 25.1454 1411.27 25.6925C1415.67 26.2395 1419.97 26.7866 1424.17 27.3076C1432.55 28.2454 1440.27 29.7825 1446.91 30.9547C1450.22 31.5539 1453.27 32.127 1455.97 32.622C1458.66 33.2212 1460.98 33.7682 1462.9 34.185C1466.73 35.0708 1468.95 35.5657 1468.95 35.5657" stroke="#FFAD00" stroke-opacity="0.3" stroke-width="0.5175" stroke-miterlimit="10"/>
<path d="M1422.89 74.0429L1411.32 72.8185C1410.18 72.6882 1409.34 71.6722 1409.47 70.526L1409.73 68.1033C1409.86 66.957 1410.88 66.1234 1412.03 66.2536L1423.59 67.478C1424.74 67.6083 1425.57 68.6243 1425.44 69.7705L1425.18 72.1932C1425.05 73.3134 1424.04 74.1471 1422.89 74.0429Z" fill="#FFAD00" fill-opacity="0.3"/>
<path d="M1255.77 129.505L1244.62 132.866C1243.53 133.204 1242.36 132.579 1242.02 131.459L1241.31 129.115C1240.98 128.02 1241.6 126.848 1242.72 126.509L1253.87 123.149C1254.97 122.81 1256.14 123.435 1256.48 124.556L1257.18 126.9C1257.52 127.994 1256.89 129.167 1255.77 129.505Z" fill="#FFAD00" fill-opacity="0.3"/>
<path d="M924.094 602.485L921.384 588.287C921.124 586.881 922.036 585.526 923.442 585.239L926.438 584.666C927.845 584.406 929.2 585.318 929.486 586.724L932.195 600.922C932.456 602.329 931.544 603.683 930.137 603.97L927.142 604.543C925.709 604.83 924.354 603.892 924.094 602.485Z" fill="#FFAD00" fill-opacity="0.3"/>
<path d="M1346.64 850.099L1336.11 849.5C1335.07 849.447 1334.26 848.536 1334.34 847.494L1334.47 845.279C1334.52 844.237 1335.44 843.43 1336.48 843.508L1347 844.107C1348.05 844.159 1348.85 845.071 1348.77 846.113L1348.64 848.327C1348.57 849.369 1347.68 850.151 1346.64 850.099Z" fill="#FFAD00" fill-opacity="0.3"/>
<path d="M1726.17 560.361L1728 549.888C1728.18 548.846 1729.17 548.143 1730.21 548.325L1732.4 548.716C1733.44 548.899 1734.15 549.888 1733.96 550.931L1732.14 561.403C1731.96 562.445 1730.97 563.148 1729.93 562.966L1727.74 562.575C1726.7 562.393 1725.99 561.403 1726.17 560.361Z" fill="#FFAD00" fill-opacity="0.3"/>
<path d="M1621.08 222.22L1613.14 215.16C1612.36 214.457 1612.28 213.259 1612.98 212.451L1614.47 210.784C1615.17 210.002 1616.37 209.924 1617.18 210.628L1625.12 217.687C1625.9 218.391 1625.98 219.589 1625.28 220.397L1623.79 222.064C1623.06 222.846 1621.87 222.924 1621.08 222.22Z" fill="#FFAD00" fill-opacity="0.3"/>
<path d="M1586.46 825.142L1595.22 819.124C1596.08 818.525 1597.27 818.734 1597.87 819.619L1599.15 821.469C1599.75 822.329 1599.54 823.527 1598.66 824.126L1589.9 830.144C1589.04 830.743 1587.84 830.535 1587.24 829.649L1585.97 827.799C1585.37 826.94 1585.6 825.741 1586.46 825.142Z" fill="#FFAD00" fill-opacity="0.3"/>
<path d="M1014.65 212.946L1008.11 221.308C1007.46 222.142 1006.26 222.298 1005.42 221.647L1003.65 220.266C1002.82 219.615 1002.66 218.417 1003.31 217.583L1009.85 209.221C1010.5 208.387 1011.7 208.231 1012.54 208.882L1014.31 210.263C1015.14 210.914 1015.3 212.112 1014.65 212.946Z" fill="#FFAD00" fill-opacity="0.3"/>
<path d="M1084.85 142.453C1084.85 144.771 1082.98 146.673 1080.63 146.673C1078.31 146.673 1076.41 144.797 1076.41 142.453C1076.41 140.134 1078.29 138.232 1080.63 138.232C1082.98 138.232 1084.85 140.134 1084.85 142.453Z" fill="#FFAD00" fill-opacity="0.3"/>
<path d="M1474.31 130.209C1474.31 132.527 1472.44 134.429 1470.09 134.429C1467.78 134.429 1465.87 132.553 1465.87 130.209C1465.87 127.89 1467.75 125.989 1470.09 125.989C1472.41 125.989 1474.31 127.864 1474.31 130.209Z" fill="#FFAD00" fill-opacity="0.3"/>
<path d="M1011.21 295.267C1011.21 297.586 1009.33 299.487 1006.99 299.487C1004.67 299.487 1002.77 297.612 1002.77 295.267C1002.77 292.949 1004.64 291.047 1006.99 291.047C1009.33 291.047 1011.21 292.949 1011.21 295.267Z" fill="#FFAD00" fill-opacity="0.3"/>
<path d="M1684.41 255.018C1684.41 257.337 1682.54 259.239 1680.19 259.239C1677.88 259.239 1675.97 257.363 1675.97 255.018C1675.97 252.7 1677.85 250.798 1680.19 250.798C1682.54 250.798 1684.41 252.7 1684.41 255.018Z" fill="#FFAD00" fill-opacity="0.3"/>
<path d="M1505.78 111.452C1505.78 113.77 1503.91 115.672 1501.56 115.672C1499.22 115.672 1497.34 113.796 1497.34 111.452C1497.34 109.133 1499.22 107.232 1501.56 107.232C1503.91 107.232 1505.78 109.107 1505.78 111.452Z" fill="#FFAD00" fill-opacity="0.3"/>
<path d="M1672.38 670.999C1672.38 673.317 1670.5 675.219 1668.16 675.219C1665.81 675.219 1663.94 673.343 1663.94 670.999C1663.94 668.654 1665.81 666.779 1668.16 666.779C1670.5 666.779 1672.38 668.68 1672.38 670.999Z" fill="#FFAD00" fill-opacity="0.3"/>
<path d="M1677.8 506.201C1677.8 508.519 1675.92 510.421 1673.58 510.421C1671.26 510.421 1669.36 508.546 1669.36 506.201C1669.36 503.882 1671.23 501.981 1673.58 501.981C1675.9 502.007 1677.8 503.882 1677.8 506.201Z" fill="#FFAD00" fill-opacity="0.3"/>
<path d="M1374.36 797.215C1374.36 799.534 1372.48 801.436 1370.14 801.436C1367.79 801.436 1365.92 799.56 1365.92 797.215C1365.92 794.871 1367.79 792.995 1370.14 792.995C1372.48 792.995 1374.36 794.871 1374.36 797.215Z" fill="#FFAD00" fill-opacity="0.3"/>
<path d="M1226.08 871.617C1226.08 873.935 1224.2 875.837 1221.86 875.837C1219.54 875.837 1217.63 873.961 1217.63 871.617C1217.63 869.298 1219.51 867.396 1221.86 867.396C1224.17 867.396 1226.08 869.272 1226.08 871.617Z" fill="#FFAD00" fill-opacity="0.3"/>
<path d="M1404.05 870.366C1404.05 872.685 1402.18 874.586 1399.83 874.586C1397.52 874.586 1395.61 872.711 1395.61 870.366C1395.61 868.048 1397.49 866.146 1399.83 866.146C1402.18 866.146 1404.05 868.048 1404.05 870.366Z" fill="#FFAD00" fill-opacity="0.3"/>
<path d="M1643.02 842.57C1643.02 844.888 1641.14 846.79 1638.8 846.79C1636.45 846.79 1634.58 844.915 1634.58 842.57C1634.58 840.225 1636.45 838.35 1638.8 838.35C1641.14 838.35 1643.02 840.251 1643.02 842.57Z" fill="#FFAD00" fill-opacity="0.3"/>
<path d="M918.44 487.965C918.44 490.284 916.565 492.186 914.22 492.186C911.902 492.186 910 490.31 910 487.965C910 485.647 911.876 483.745 914.22 483.745C916.539 483.745 918.44 485.647 918.44 487.965Z" fill="#FFAD00" fill-opacity="0.3"/>
<path d="M1046.66 728.076C1046.66 730.395 1044.79 732.297 1042.44 732.297C1040.12 732.297 1038.22 730.421 1038.22 728.076C1038.22 725.758 1040.1 723.856 1042.44 723.856C1044.76 723.856 1046.66 725.758 1046.66 728.076Z" fill="#FFAD00" fill-opacity="0.3"/>
<path d="M1045.31 780.048C1045.31 782.366 1043.43 784.268 1041.09 784.268C1038.74 784.268 1036.87 782.392 1036.87 780.048C1036.87 777.703 1038.74 775.828 1041.09 775.828C1043.43 775.828 1045.31 777.729 1045.31 780.048Z" stroke="#FFAD00" stroke-opacity="0.3" stroke-width="0.5175" stroke-miterlimit="10"/>
<path d="M1010.45 512.87C1010.45 515.188 1008.58 517.09 1006.23 517.09C1003.91 517.09 1002.01 515.214 1002.01 512.87C1002.01 510.551 1003.89 508.65 1006.23 508.65C1008.58 508.676 1010.45 510.551 1010.45 512.87Z" stroke="#FFAD00" stroke-opacity="0.3" stroke-width="0.5175" stroke-miterlimit="10"/>
<path d="M1272.16 208.127C1272.16 210.445 1270.28 212.347 1267.94 212.347C1265.62 212.347 1263.72 210.471 1263.72 208.127C1263.72 205.808 1265.59 203.906 1267.94 203.906C1270.28 203.906 1272.16 205.808 1272.16 208.127Z" stroke="#FFAD00" stroke-opacity="0.3" stroke-width="0.5175" stroke-miterlimit="10"/>
<path d="M1477 37.1548C1477 39.4733 1475.12 41.3751 1472.78 41.3751C1470.46 41.3751 1468.56 39.4994 1468.56 37.1548C1468.56 34.8363 1470.43 32.9346 1472.78 32.9346C1475.1 32.9346 1477 34.8363 1477 37.1548Z" stroke="#FFAD00" stroke-opacity="0.3" stroke-width="0.5175" stroke-miterlimit="10"/>
<path d="M1354.95 186.27C1354.95 188.589 1353.07 190.49 1350.73 190.49C1348.41 190.49 1346.51 188.615 1346.51 186.27C1346.51 183.952 1348.38 182.05 1350.73 182.05C1353.07 182.05 1354.95 183.925 1354.95 186.27Z" stroke="#FFAD00" stroke-opacity="0.3" stroke-width="0.5175" stroke-miterlimit="10"/>
<path d="M1685.51 202.917C1685.51 205.235 1683.63 207.137 1681.29 207.137C1678.97 207.137 1677.07 205.261 1677.07 202.917C1677.07 200.572 1678.94 198.696 1681.29 198.696C1683.63 198.722 1685.51 200.598 1685.51 202.917Z" stroke="#FFAD00" stroke-opacity="0.3" stroke-width="0.5175" stroke-miterlimit="10"/>
<path d="M1658.03 316.551C1658.03 318.869 1656.15 320.771 1653.81 320.771C1651.49 320.771 1649.58 318.895 1649.58 316.551C1649.58 314.232 1651.46 312.33 1653.81 312.33C1656.15 312.33 1658.03 314.206 1658.03 316.551Z" stroke="#FFAD00" stroke-opacity="0.3" stroke-width="0.5175" stroke-miterlimit="10"/>
<path d="M1781.06 498.829C1781.06 501.147 1779.19 503.049 1776.84 503.049C1774.52 503.049 1772.62 501.173 1772.62 498.829C1772.62 496.484 1774.5 494.608 1776.84 494.608C1779.19 494.634 1781.06 496.51 1781.06 498.829Z" stroke="#FFAD00" stroke-opacity="0.3" stroke-width="0.5175" stroke-miterlimit="10"/>
<path d="M1718.88 359.534C1718.88 361.853 1717 363.755 1714.66 363.755C1712.34 363.755 1710.44 361.879 1710.44 359.534C1710.44 357.19 1712.31 355.314 1714.66 355.314C1717 355.34 1718.88 357.216 1718.88 359.534Z" stroke="#FFAD00" stroke-opacity="0.3" stroke-width="0.5175" stroke-miterlimit="10"/>
<path d="M1459.13 774.525C1459.13 776.844 1457.25 778.745 1454.91 778.745C1452.59 778.745 1450.69 776.87 1450.69 774.525C1450.69 772.207 1452.56 770.305 1454.91 770.305C1457.25 770.305 1459.13 772.207 1459.13 774.525Z" stroke="#FFAD00" stroke-opacity="0.3" stroke-width="0.5175" stroke-miterlimit="10"/>
</g>
<defs>
<filter id="filter0_f" x="429" y="-470.386" width="1845" height="1845" filterUnits="userSpaceOnUse" color-interpolation-filters="sRGB">
<feFlood flood-opacity="0" result="BackgroundImageFix"/>
<feBlend mode="normal" in="SourceGraphic" in2="BackgroundImageFix" result="shape"/>
<feGaussianBlur stdDeviation="300" result="effect1_foregroundBlur"/>
</filter>
<clipPath id="clip0">
<rect width="1920" height="971" fill="white"/>
</clipPath>
</defs>
</svg>
